<?xml version="1.0" standalone="no"?>
<!DOCTYPE svg PUBLIC "-//W3C//DTD SVG 1.1//EN" "http://www.w3.org/Graphics/SVG/1.1/DTD/svg11.dtd" >
<svg xmlns="http://www.w3.org/2000/svg" xmlns:xlink="http://www.w3.org/1999/xlink" version="1.1">
<metadata>
Created by FontForge 20170731 at Sat Dec  1 21:30:52 1928
 By Aleksey,,,
(C) SoftUnion Ltd., 1994. Created by N.Vsesvetskii.
</metadata>
<defs>
<font id="Simeiz" horiz-adv-x="469" >
  <font-face 
    font-family="Simeiz"
    font-weight="400"
    font-stretch="normal"
    units-per-em="1000"
    panose-1="2 7 6 4 7 5 6 2 2 4"
    ascent="800"
    descent="-200"
    x-height="500"
    cap-height="680"
    bbox="0 -181 980 845"
    underline-thickness="20"
    underline-position="-163"
    unicode-range="U+0020-2122"
  />
<missing-glyph horiz-adv-x="680" 
d="M42 0v680h596v-680h-596zM596 42v596h-512v-596h512z" />
    <glyph glyph-name=".notdef" horiz-adv-x="680" 
d="M42 0v680h596v-680h-596zM596 42v596h-512v-596h512z" />
    <glyph glyph-name=".null" horiz-adv-x="0" 
 />
    <glyph glyph-name="nonmarkingreturn" horiz-adv-x="500" 
 />
    <glyph glyph-name="space" unicode=" " horiz-adv-x="500" 
 />
    <glyph glyph-name="exclam" unicode="!" horiz-adv-x="194" 
d="M97 691q20 0 35 -14q15 -12 15 -36l-34 -440h-32l-34 440q0 23 15 36.5t35 13.5zM97 -11q-23 0 -40 16q-16 18 -16 40q0 23 16.5 39.5t39.5 16.5t39 -17q17 -15 17 -39q0 -23 -16.5 -39.5t-39.5 -16.5z" />
    <glyph glyph-name="quotedbl" unicode="&#x22;" horiz-adv-x="275" 
d="M255 636q0 -12 -6 -29l-14 -31l-13 -36q-6 -18 -6 -43h-27q0 23 -5.5 41t-7 23t-7.5 15l-13 31q-6 15 -6 29q0 20 15 37.5t37 17.5q21 0 37 -16.5t16 -38.5zM125 636q0 -12 -6 -29l-14 -31l-13 -36q-6 -18 -6 -43h-27q0 23 -5.5 41t-7 23t-7.5 15l-13 31q-6 15 -6 29
q0 20 15 37.5t37 17.5q21 0 37 -16.5t16 -38.5z" />
    <glyph glyph-name="numbersign" unicode="#" horiz-adv-x="509" 
d="M474 261h-150l-77 -261h-45l78 261h-122l-78 -261h-44l77 261h-78v41h91l38 124h-129v42h141l64 212h45l-64 -212h122l64 212h44l-64 -212h87v-42h-99l-38 -124h137v-41zM330 426h-122l-38 -124h123z" />
    <glyph glyph-name="dollar" unicode="$" horiz-adv-x="468" 
d="M448 193q0 -36 -12.5 -71t-37 -62.5t-63.5 -48.5q-35 -17 -85 -22v-79h-32v79q-31 0 -59.5 4t-54.5 13q-50 18 -78 55v187h26q6 -57 22.5 -104.5t34.5 -79.5q11 -23 40.5 -35.5t68.5 -12.5v301q-198 47 -198 191q0 37 12 67t38 57q48 50 148 59v53h32v-53q34 0 80 -10
q49 -9 82 -22v-189h-26q0 25 -3.5 43t-11.5 39q-9 30 -24 63q-7 18 -36 33.5t-61 15.5v-258q91 -21 144.5 -75.5t53.5 -137.5zM218 416v248q-68 0 -102 -35.5t-34 -81.5q0 -45 30 -78q29 -29 106 -53zM250 307v-291q60 0 95.5 45.5t35.5 100.5q0 51 -33 87.5t-98 57.5z" />
    <glyph glyph-name="percent" unicode="%" horiz-adv-x="756" 
d="M600 -11q-34 0 -59.5 17t-42 46t-27.5 72q-4 20 -6 39.5t-2 45.5q0 49 8.5 87t25 67t43 47t60.5 18t60 -17.5t42.5 -47t25.5 -70.5q4 -20 6 -39.5t2 -44.5q0 -44 -8.5 -84.5t-25.5 -71t-42.5 -47.5t-59.5 -17zM600 9q19 0 34 16.5t24 43.5t15 64q3 25 4 37t1 39
q0 20 -1 40t-4 38q0 17 -3.5 32.5t-10.5 30.5q-9 28 -25 42q-14 16 -34 16q-19 0 -34 -15t-26 -43q-4 -13 -8 -32t-7 -42t-3.5 -40t-0.5 -27q0 -19 1 -38t5 -48t13 -54.5t25 -42.5t35 -17zM555 680l-325 -680h-34l326 680h33zM157 252q-35 0 -61 17q-24 18 -40.5 46.5
t-27.5 71.5q-4 20 -6 39.5t-2 45.5q0 49 8.5 87t25 66.5t42.5 47t61 18.5q34 0 60 -17.5t42.5 -47t25.5 -70.5q4 -20 6 -39.5t2 -44.5q0 -44 -8.5 -84.5t-25.5 -71t-42.5 -47.5t-59.5 -17zM157 272q18 0 33.5 16.5t24.5 43.5t15 64q3 25 4 37t1 39q0 20 -1 40t-4 38
q0 17 -3.5 32.5t-10.5 30.5q-9 28 -25 42q-14 16 -34 16q-19 0 -34 -15t-26 -43q-4 -13 -8 -32t-7 -42t-3.5 -40t-0.5 -27q0 -19 1 -38t5 -48t13 -54.5t25 -42.5t35 -17z" />
    <glyph glyph-name="ampersand" unicode="&#x26;" horiz-adv-x="608" 
d="M588 0h-130l-44 63l-39 -30l-38 -23q-18 -9 -41.5 -15t-54.5 -6q-110 0 -165.5 51.5t-55.5 132.5q0 53 37 104t129 107q-37 53 -52 96t-15 74q0 30 13.5 54t36 41.5t53.5 30.5q14 5 29.5 8t32.5 3q67 0 109.5 -30.5t42.5 -85.5q0 -48 -43.5 -93.5t-114.5 -77.5l171 -248
q20 40 30 83q4 20 7 45.5t3 51.5h-83v20h161v-20h-50q0 -30 -3 -55t-11 -53q-12 -53 -37 -96l78 -112h44v-20zM363 570q0 39 -23 68t-65 29q-37 0 -62.5 -27t-25.5 -64q0 -12 9 -39t25 -49l44 -63q98 60 98 145zM399 84l-198 279q-60 -36 -82 -77q-10 -20 -15 -39t-5 -41
q0 -38 12 -72t35 -59t53 -41q31 -14 65 -14l32 1q17 0 34 6.5t34 19.5q17 11 35 37z" />
    <glyph glyph-name="quotesingle" unicode="'" horiz-adv-x="152" 
d="M74 579q-20 0 -38 15q-16 16 -16 39q0 24 15.5 41t38.5 17q24 0 41 -17t17 -42q0 -44 -26.5 -81t-65.5 -62l-15 20q19 12 37 35q17 19 20 36z" />
    <glyph glyph-name="parenleft" unicode="(" horiz-adv-x="265" 
d="M245 -77l-15 -16q-46 31 -80 75.5t-58.5 102.5t-38 128.5t-13.5 138.5q0 137 51 251.5t139 176.5l15 -16q-33 -30 -55.5 -76.5t-36 -98.5t-20.5 -116t-7 -122q0 -31 1 -63t5.5 -80.5t18 -106t36 -103t58.5 -75.5z" />
    <glyph glyph-name="parenright" unicode=")" horiz-adv-x="265" 
d="M225 352q0 -74 -12.5 -140t-37.5 -125t-59 -103t-80 -77l-16 16q34 28 57.5 74t37 102.5t19.5 122t6 129.5q0 56 -6.5 119.5t-20 117t-36 99.5t-57.5 77l16 16q44 -33 77.5 -75.5t59.5 -101.5q11 -24 20.5 -54t17.5 -65q14 -65 14 -132z" />
    <glyph glyph-name="asterisk" unicode="*" horiz-adv-x="392" 
d="M369 402l-3 -6l-3 -7q-11 -8 -24 -10q-12 0 -22 7q-16 10 -42 34q-26 26 -64 48q0 -46 10 -81.5t10 -52.5q0 -14 -9 -26q-8 -8 -25 -10q-15 0 -26 10q-9 11 -9 26q0 17 9.5 53.5t9.5 75.5v6q-37 -22 -63 -49q-22 -23 -42 -35q-9 -6 -20 -6q-12 0 -22 10l-6 6l-4 8
q-2 6 -2 11q0 3 2 11q5 12 19 20t51 17.5t73 31.5q-37 21 -74 31q-19 5 -32 9.5t-23 10.5t-16 19q-1 3 -1 6.5v4.5q0 3 2 11l10 14q9 9 21 9q9 0 19 -5t20.5 -13.5t23.5 -22.5q24 -22 64 -47q0 46 -9.5 80.5t-9.5 53.5q0 14 9 25t26 11q15 0 24.5 -10t9.5 -26
q0 -15 -2 -23.5t-9 -31.5q-9 -36 -9 -79l3 1q37 21 61 45.5t42 36.5q11 6 20 6q17 0 29 -18q6 -10 4 -24l-6 -13q-3 -6 -13 -10q-14 -9 -50.5 -19t-74.5 -32q36 -20 73 -31q36 -9 53 -19q14 -6 18 -19q1 -4 1 -12q0 -7 -2 -11z" />
    <glyph glyph-name="plus" unicode="+" horiz-adv-x="572" 
d="M532 329h-222v-221h-48v221h-222v48h222v222h48v-222h222v-48z" />
    <glyph glyph-name="comma" unicode="," horiz-adv-x="189" 
d="M94 -11q-20 0 -38 15q-16 16 -16 39q0 24 15.5 41t38.5 17q24 0 41 -17t17 -42q0 -45 -26 -80.5t-66 -62.5l-15 20q19 12 37 35q17 19 20 36z" />
    <glyph glyph-name="hyphen" unicode="-" horiz-adv-x="296" 
d="M276 232h-256v65h256v-65z" />
    <glyph glyph-name="period" unicode="." horiz-adv-x="194" 
d="M97 -11q-23 0 -40 16q-16 18 -16 40q0 23 16.5 39.5t39.5 16.5t39 -17q17 -15 17 -39q0 -23 -16.5 -39.5t-39.5 -16.5z" />
    <glyph glyph-name="slash" unicode="/" horiz-adv-x="446" 
d="M441 753l-386 -826h-50l386 826h50z" />
    <glyph glyph-name="zero" unicode="0" 
d="M449 342q0 -38 -3 -70t-11 -67q-12 -64 -39.5 -112t-67.5 -76t-94 -28q-53 0 -93 27.5t-66.5 74.5t-42.5 114q-13 68 -13 136q0 77 13.5 141t40.5 109.5t67.5 72.5t93.5 27q54 0 93.5 -27.5t66.5 -73.5t41 -111.5t14 -136.5zM234 667q-36 0 -58.5 -22t-37.5 -65
q-12 -42 -18 -103q0 -24 -2.5 -72.5t-2.5 -63.5l3 -133q0 -27 4 -53.5t10 -49.5q12 -41 36 -68q24 -24 66 -24q31 0 55 24q22 24 37 68t21 104q3 30 5 63t2 71q0 77 -6 134.5t-20 102.5q-24 87 -94 87z" />
    <glyph glyph-name="one" unicode="1" 
d="M354 0h-205v20h68v564l-53 -50q-29 -25 -55 -37l-14 14q8 6 26 21q10 8 20 17l48 46l44 48q9 10 19 24q7 10 16 24h36v-671h50v-20z" />
    <glyph glyph-name="two" unicode="2" 
d="M426 513q0 -48 -18 -93q-16 -45 -47 -87t-71.5 -81.5t-88.5 -80.5l-119 -92h310v93h22v-172h-380v75l130 118q96 90 132.5 173t36.5 148q0 77 -33.5 115t-78.5 38q-18 0 -30 -2t-26 -9q-24 -9 -34 -31l-16 -36l-12 -35l-9 -43l-7 -56h-24v200q14 7 40.5 15.5t41.5 11.5
t39.5 6t43.5 3q92 0 145 -48.5t53 -129.5z" />
    <glyph glyph-name="three" unicode="3" 
d="M440 181q0 -42 -18.5 -76.5t-49.5 -61.5q-30 -24 -71 -40q-40 -14 -83 -14q-53 0 -99 14t-77 39v185h25q4 -28 7.5 -42t12.5 -43q13 -48 32 -81q10 -20 41 -35q20 -8 33.5 -10.5t25.5 -2.5q53 0 90 45t37 114q0 79 -33.5 124.5t-98.5 45.5h-43l-2 5l-1 8l1 8l2 5h43
q51 0 84.5 43.5t33.5 113.5q0 68 -31 105t-85 37q-23 0 -50.5 -11t-38.5 -31q-16 -34 -29 -77q-9 -40 -15 -86h-25v193q14 7 40.5 15.5t41.5 11.5t39.5 6t43.5 3q91 0 145 -42t54 -124q0 -60 -36 -102t-104 -66l1 -3q33 -7 61 -24t50 -40t34 -51t12 -58z" />
    <glyph glyph-name="four" unicode="4" 
d="M452 209h-83v-189h48v-20h-211v20h77v189h-273v37q21 43 61 107l42 63q28 41 45 65q29 41 33 47q14 18 57 75q48 60 74 88h47v-445h83v-37zM283 246v344q-13 -11 -41 -46l-59 -78l-69 -101l-73 -119h242z" />
    <glyph glyph-name="five" unicode="5" 
d="M426 233q0 -49 -15.5 -93t-46.5 -78q-27 -31 -69 -53q-20 -10 -41 -15t-47 -5q-44 0 -88 14t-72 36v173h26l7 -43l9 -45l10 -40l12 -32q7 -23 36 -32q15 -3 29.5 -5t30.5 -2q52 0 89.5 58t37.5 168q0 96 -35.5 144t-98.5 48q-39 0 -66 -25t-52 -79h-26v353h330v-78h-304
v-211q32 40 68.5 55t72.5 15q43 0 77.5 -16.5t65.5 -48.5q25 -28 44 -72q16 -45 16 -91z" />
    <glyph glyph-name="six" unicode="6" 
d="M442 215q0 -23 -3 -43t-11 -42q-12 -39 -37.5 -70t-64.5 -51t-87 -20q-53 0 -93 27t-67 73q-22 42 -38 106q-12 60 -12 126q0 73 13.5 139t42.5 116t75 84q23 15 49.5 23t60.5 8t73 -9q37 -7 56 -22v-168h-26q-3 25 -6 43.5t-11 42.5q-13 43 -25.5 59t-27.5 23t-35 7
q-38 0 -68 -27q-27 -27 -44.5 -69t-26.5 -101q-3 -28 -5 -56.5t-2 -58.5q30 46 59.5 65t81.5 19q81 0 130 -59.5t49 -164.5zM347 215q0 95 -24 145.5t-84 50.5q-29 0 -48.5 -16t-34.5 -44q-11 -25 -18 -61.5t-7 -74.5q0 -92 31.5 -147t76.5 -55q62 0 86 53q22 57 22 149z
" />
    <glyph glyph-name="seven" unicode="7" 
d="M46 680h392v-20l-67 -133q-33 -67 -58.5 -138t-43.5 -151.5t-18 -162.5v-55h46v-20h-199v20h57v66q0 83 21 152t54 129q15 27 34 58.5t37 58.5q36 51 73 114h-304l-8 -108h-24z" />
    <glyph glyph-name="eight" unicode="8" 
d="M451 178q0 -41 -15.5 -75t-44.5 -60t-69 -40t-86 -14q-47 0 -88 15t-70 40q-25 24 -44 60q-16 37 -16 74q0 69 38 119.5t111 62.5q-55 18 -89 59.5t-34 98.5q0 80 54.5 126.5t136.5 46.5q81 0 136 -46t55 -127q0 -57 -36 -98t-88 -59l1 -2q66 -15 107 -64.5t41 -116.5z
M234 667q-44 0 -74 -36q-28 -37 -28 -112q0 -69 28.5 -107t74.5 -38q44 0 73.5 36.5t29.5 108.5q0 74 -28 111t-76 37zM354 178q0 34 -4.5 57t-6.5 30q-5 16 -15 32q-14 23 -37 36q-5 3 -20.5 8t-35.5 5q-38 0 -60 -14q-22 -12 -35 -35t-17.5 -49.5t-5.5 -36.5t-1 -33
q0 -90 35 -127.5t84 -37.5q48 0 83.5 36.5t35.5 128.5z" />
    <glyph glyph-name="nine" unicode="9" 
d="M438 360q0 -39 -3 -72.5t-11 -69.5q-12 -65 -41 -117t-75 -82t-110 -30h-25q-12 3 -25.5 5t-16.5 2.5t-18.5 5.5t-23.5 7.5t-21.5 8.5t-23.5 15v194h25l9 -51q4 -19 6.5 -28t6.5 -22t7 -22t11 -24l17 -33q20 -34 74 -34q40 0 68 24t45.5 66.5t25 102t7.5 122.5
q-28 -43 -60 -59q-33 -14 -81 -14q-79 0 -129 56t-50 161q0 39 12 78.5t36 70.5t64.5 50.5t90.5 19.5q54 0 93.5 -26.5t65.5 -72t38 -106t12 -126.5zM337 472q0 89 -29 142t-78 53q-60 0 -84 -45.5t-24 -149.5q0 -98 24.5 -143.5t82.5 -45.5q56 0 82 54.5t26 134.5z" />
    <glyph glyph-name="colon" unicode=":" horiz-adv-x="194" 
d="M97 -11q-23 0 -40 16q-16 18 -16 40q0 23 16.5 39.5t39.5 16.5t39 -17q17 -15 17 -39q0 -23 -16.5 -39.5t-39.5 -16.5zM97 319q-23 0 -40 16q-16 18 -16 40q0 23 16.5 39.5t39.5 16.5t39 -17q17 -15 17 -39q0 -23 -16.5 -39.5t-39.5 -16.5z" />
    <glyph glyph-name="semicolon" unicode=";" horiz-adv-x="194" 
d="M95 -11q-22 0 -38 15t-16 39q0 23 15 40.5t39 17.5t41 -17t17 -42q0 -45 -26 -80.5t-66 -62.5l-15 20q19 12 37 35q17 19 20 36zM97 298q-23 0 -40 16q-16 18 -16 40q0 23 16.5 39.5t39.5 16.5t39 -17q17 -15 17 -39q0 -23 -16.5 -39.5t-39.5 -16.5z" />
    <glyph glyph-name="less" unicode="&#x3c;" horiz-adv-x="475" 
d="M435 157l-25 -43l-370 214v48l370 213l25 -42l-337 -195z" />
    <glyph glyph-name="equal" unicode="=" horiz-adv-x="569" 
d="M529 394h-489v48h489v-48zM529 261h-489v48h489v-48z" />
    <glyph glyph-name="greater" unicode="&#x3e;" horiz-adv-x="475" 
d="M435 328l-370 -214l-25 43l338 195l-338 195l25 42l370 -213v-48z" />
    <glyph glyph-name="question" unicode="?" horiz-adv-x="408" 
d="M40 462v205q5 2 21 6t45 11q20 3 40.5 5t43.5 2q93 0 145.5 -41t52.5 -108q0 -41 -14 -71t-37 -55q-19 -20 -46 -41l-47 -35q-12 -10 -20 -17t-16 -18q-14 -17 -14 -40v-53h-26v53q0 31 18 61l39 61q21 32 39 68.5t18 85.5q0 11 -1.5 22t-9.5 27q-9 23 -26 40
q-15 17 -31.5 26t-32.5 11q-20 0 -42 -11t-30.5 -27.5t-23.5 -58.5q-10 -34 -19 -108h-26zM181 -11q-23 0 -40 16q-16 18 -16 40q0 23 16.5 39.5t39.5 16.5t39 -17q17 -15 17 -39q0 -23 -16.5 -39.5t-39.5 -16.5z" />
    <glyph glyph-name="at" unicode="@" horiz-adv-x="824" 
d="M804 255q0 -33 -8.5 -74t-24.5 -85t-56 -75.5t-77 -31.5q-54 0 -92.5 22.5t-43.5 69.5q-21 -42 -55 -67t-105 -25q-56 0 -94 35.5t-38 90.5q0 42 15 68.5t42 44.5t59 28l63 18l58 18q26 9 44 27v79q0 37 -26.5 63.5t-65.5 26.5q-25 0 -41.5 -9.5t-28.5 -22.5
q-12 -17 -26 -58q-4 -13 -8.5 -35t-8.5 -47h-26v150q25 22 63.5 34t79.5 12q34 0 63.5 -6.5t54.5 -23t40.5 -44t15.5 -67.5v-288q0 -26 18 -47q19 -19 44 -19q16 0 30.5 6t30.5 20q29 26 44 65q12 34 21 70q8 38 8 77q0 86 -28 158.5t-77 126.5t-116 87q-32 16 -66.5 24
t-73.5 8q-77 0 -141 -31.5t-113.5 -87t-78.5 -128.5q-14 -37 -21 -75t-7 -82q0 -84 28 -157t77 -128t115.5 -87.5t140.5 -32.5q31 0 67.5 10t67.5 26q38 16 66 38q31 22 54 46l29 -8q-21 -28 -55.5 -55t-72 -46t-79.5 -30.5t-77 -11.5q-82 0 -152.5 33.5t-123.5 93.5
t-85 139q-15 40 -23 82t-8 88q0 91 30.5 169.5t83.5 138.5t126 94t152 34q81 0 152 -33.5t124.5 -93.5t84.5 -140q15 -39 23 -81t8 -88zM491 289q-25 -15 -60 -27q-33 -9 -63 -24t-51.5 -43t-21.5 -77q0 -41 22 -72t57 -31q18 0 38.5 9.5t37 28.5t29 47.5t12.5 65.5v123z
" />
    <glyph glyph-name="A" unicode="A" horiz-adv-x="567" 
d="M567 0h-212v20h70l-80 250h-196l-78 -250h81v-20h-152v20h42l206 660h60l217 -660h42v-20zM340 290l-92 295l-94 -295h186z" />
    <glyph glyph-name="B" unicode="B" horiz-adv-x="551" 
d="M531 185q0 -39 -15.5 -72.5t-44 -58.5t-68.5 -39.5t-85 -14.5h-298v20h54v640h-54v20h279q86 0 140 -47t54 -122q0 -51 -39 -90.5t-102 -57.5v-5q80 -7 129.5 -53.5t49.5 -119.5zM396 511q0 27 -9 54t-26.5 47.5t-45.5 34t-60 13.5h-89v-286h95q32 0 54.5 10.5t41.5 29.5
t29 45q4 11 7 24.5t3 27.5zM435 187q0 30 -11.5 59.5t-30.5 50t-49 36.5q-29 13 -61 13h-117v-326h132q30 0 54 12.5t43 35.5t29.5 54t10.5 65z" />
    <glyph glyph-name="C" unicode="C" horiz-adv-x="488" 
d="M468 44q-25 -32 -71.5 -43.5t-94.5 -11.5q-64 0 -115.5 23.5t-91.5 69.5q-35 44 -56 110q-19 68 -19 146q0 73 19 135.5t55.5 111t90.5 77.5t119 29q34 0 75 -9t81 -33v-176h-25q-6 47 -21 88t-28 68q-9 17 -33 27.5t-49 10.5q-42 0 -74.5 -26t-56 -72t-36 -104.5
t-12.5 -123.5q0 -76 12.5 -135t36 -101.5t57.5 -68.5q34 -23 72 -23q31 0 58 13.5t37 39t23 73.5l21 98h26v-193z" />
    <glyph glyph-name="D" unicode="D" horiz-adv-x="551" 
d="M531 346q0 -36 -4 -70t-13 -66q-16 -62 -55 -110q-35 -44 -94 -72t-143 -28h-202v20h54v640h-54v20h204q81 0 137 -24t96 -70q36 -42 55 -104t19 -136zM425 347q0 42 -4 78t-13 66q-17 60 -46 97q-26 37 -65.5 54.5t-80.5 17.5h-50v-640h48q102 0 156.5 83t54.5 244z" />
    <glyph glyph-name="E" unicode="E" horiz-adv-x="505" 
d="M486 0h-466v20h54v640h-54v20h455v-217h-26q-4 31 -7.5 47t-12.5 46q-13 51 -22 67t-25 25.5t-34 11.5h-182v-294h69q36 0 48 24q9 18 19 51l11 60h26v-289h-26q-3 27 -11 56t-19.5 53.5t-47.5 24.5h-69v-326h197q18 0 36 15t27 39l9 34l9 44l9 48l7 45h26v-245z" />
    <glyph glyph-name="F" unicode="F" horiz-adv-x="471" 
d="M462 463h-26q-6 36 -20.5 85.5t-28.5 79.5q-6 14 -21 23t-32 9h-169v-296h70q35 0 48 26q8 18 19 53q5 17 7.5 35t3.5 23h26v-289h-26q0 9 -3 23t-7.5 29t-9 28.5t-10 25.5t-19.5 19t-29 7h-70v-324h73v-20h-219v20h54v640h-54v20h443v-217z" />
    <glyph glyph-name="G" unicode="G" horiz-adv-x="544" 
d="M534 274h-32v-222q-36 -29 -92 -47q-29 -8 -54.5 -12t-55.5 -4q-71 0 -125 27.5t-87 75t-50.5 112.5t-17.5 141q0 74 22 137q11 32 26 58.5t36 50.5q39 46 94 73t121 27q19 0 38.5 -1.5t57.5 -11t70 -32.5v-177h-25q-5 28 -7.5 39.5t-12.5 41.5q-12 48 -28 75
q-26 42 -91 42q-46 0 -82 -25.5t-60.5 -69.5t-39.5 -103q-13 -62 -13 -121q0 -60 6.5 -119t26.5 -105q17 -46 54 -80q36 -31 90 -31q44 0 75.5 21.5t31.5 52.5v187h-90v20h214v-20z" />
    <glyph glyph-name="H" unicode="H" horiz-adv-x="585" 
d="M419 20v323h-253v-323h54v-20h-200v20h54v640h-54v20h200v-20h-54v-289h253v289h-54v20h200v-20h-54v-640h54v-20h-200v20h54z" />
    <glyph glyph-name="I" unicode="I" horiz-adv-x="240" 
d="M74 20v640h-54v20h200v-20h-54v-640h54v-20h-200v20h54z" />
    <glyph glyph-name="J" unicode="J" horiz-adv-x="398" 
d="M233 114v546h-71v20h216v-20h-53v-519q0 -78 -52 -115t-125 -37q-21 0 -32 1t-31 6t-35 10t-30 14v232h26q5 -49 17 -100t31 -97q6 -17 24.5 -29.5t39.5 -12.5q16 0 29.5 8.5t23.5 24t16 33.5t6 35z" />
    <glyph glyph-name="K" unicode="K" horiz-adv-x="551" 
d="M551 0h-126l-259 346v-326h54v-20h-200v20h54v640h-54v20h200v-20h-54v-289l269 289h-69v20h153v-20h-47l-244 -259l288 -381h35v-20z" />
    <glyph glyph-name="L" unicode="L" horiz-adv-x="465" 
d="M455 0h-435v20h54v640h-54v20h221v-20h-74v-640h156q24 0 40.5 9.5t28.5 42.5q8 24 19 76l17 102h27v-250z" />
    <glyph glyph-name="M" unicode="M" horiz-adv-x="703" 
d="M537 20v609l-201 -629h-35l-204 624v-604h76v-20h-154v20h54v640h-54v20h156l179 -544l170 544h159v-20h-54v-640h54v-20h-223v20h77z" />
    <glyph glyph-name="N" unicode="N" horiz-adv-x="563" 
d="M466 160v500h-79v20h156v-20h-53v-660h-44l-348 636v-616h80v-20h-158v20h54v640h-54v20h161z" />
    <glyph glyph-name="O" unicode="O" horiz-adv-x="547" 
d="M527 344q0 -80 -18.5 -144.5t-51.5 -111t-80.5 -73t-104.5 -26.5q-58 0 -103 25.5t-79 72.5t-52 112t-18 144q0 78 18.5 140.5t51.5 108.5t80.5 72.5t103.5 26.5q57 0 102.5 -25t78.5 -70.5t52.5 -111.5t19.5 -140zM421 344q0 168 -36 245.5t-111 77.5t-111.5 -78.5
t-36.5 -244.5q0 -179 35.5 -255t110.5 -76q80 0 114.5 77t34.5 254z" />
    <glyph glyph-name="P" unicode="P" horiz-adv-x="519" 
d="M500 500q0 -81 -64.5 -123t-173.5 -42h-96v-315h77v-20h-223v20h54v640h-54v20h262q106 0 162 -50t56 -130zM400 500q0 33 -10 60q-9 29 -27.5 51.5t-43.5 35.5q-7 3 -23 8t-36 5h-94v-305h91q35 0 63 12t46 33q16 21 25 47t9 53z" />
    <glyph glyph-name="Q" unicode="Q" horiz-adv-x="545" 
d="M525 344q0 -70 -15 -131.5t-42 -105.5t-67 -75q-36 -27 -86 -38v-74q0 -13 10.5 -27.5t26.5 -14.5h22v-20h-53q-37 0 -63 24.5t-26 59.5v52q-47 7 -89 36q-39 29 -66.5 74t-42 106.5t-14.5 132.5q0 76 18 140.5t51.5 109.5t81 71.5t102.5 26.5q57 0 102.5 -25t79 -71
t52 -111.5t18.5 -139.5zM420 344q0 168 -36 245.5t-111 77.5t-111.5 -78t-36.5 -245q0 -179 35.5 -255t111.5 -76q77 0 112.5 77t35.5 254z" />
    <glyph glyph-name="R" unicode="R" horiz-adv-x="569" 
d="M554 0h-144l-233 351h-11v-331h60v-20h-206v20h54v640h-54v20h269q43 0 81 -11t68 -33t46 -55q17 -31 17 -70q0 -31 -13.5 -58.5t-38 -48t-58.5 -34.5q-19 -7 -35 -10.5t-35 -3.5l-7 -1h-13l-13 -1h-7l229 -334h44v-20zM267 660h-101v-289h97q38 0 64 11.5t42.5 31
t23.5 44.5q4 14 6 25.5t2 27.5q0 64 -37.5 106.5t-96.5 42.5z" />
    <glyph glyph-name="S" unicode="S" horiz-adv-x="473" 
d="M454 196q0 -50 -20 -87q-17 -36 -51 -65q-30 -25 -75 -41q-44 -14 -89 -14q-23 0 -49 4t-53 13q-53 19 -84 44v200h26q12 -74 33 -126t31 -69q15 -22 36 -33q21 -9 57 -9q31 0 62.5 9t55.5 29t39.5 50t15.5 72q0 45 -27.5 72t-67.5 45t-89 34t-89.5 37.5t-68 55
t-27.5 87.5q0 49 18 85t48.5 58.5t72.5 33t87 10.5q42 0 86 -11q49 -9 73 -26l6 -181h-22q-7 51 -27 96q-10 24 -17 38.5t-12 23.5q-11 18 -38 27t-61 9q-30 0 -56.5 -6.5t-48.5 -21.5t-37 -39q-13 -26 -13 -58q0 -42 26 -65t70 -42l90 -32q49 -15 90.5 -39.5t70 -64
t28.5 -103.5z" />
    <glyph glyph-name="T" unicode="T" horiz-adv-x="463" 
d="M451 462h-26q-2 19 -3.5 32.5t-8 51t-19.5 67.5q-9 18 -24 33t-37 15h-55v-642h62v-19h-217v19h62v642h-55q-20 0 -36 -14t-25 -34q-12 -29 -20 -73l-11 -78h-26v218h439v-218z" />
    <glyph glyph-name="U" unicode="U" horiz-adv-x="527" 
d="M516 660h-52v-495q0 -37 -12.5 -69t-36.5 -55.5t-58 -38.5q-36 -13 -73 -13q-45 0 -85.5 15t-69.5 42t-46.5 64t-17.5 81v469h-54v20h200v-20h-54v-500q0 -58 39 -100q20 -20 44 -30t56 -10q63 0 103.5 42t40.5 105v493h-72v20h148v-20z" />
    <glyph glyph-name="V" unicode="V" horiz-adv-x="511" 
d="M511 660h-43l-175 -660h-57l-194 660h-42v20h206v-20h-66l158 -552l142 552h-66v20h137v-20z" />
    <glyph glyph-name="W" unicode="W" horiz-adv-x="785" 
d="M785 660h-42l-172 -660h-57l-119 451l-119 -451h-57l-177 660h-42v20h205v-20h-62l141 -527l97 378l-41 149h-62v20h232v-20h-71l137 -526l140 526h-67v20h136v-20z" />
    <glyph glyph-name="X" unicode="X" horiz-adv-x="538" 
d="M538 0h-223v20h59l-135 286l-153 -286h73v-20h-159v20h54l171 314l-152 326h-49v20h220v-20h-67l108 -231l124 231h-70v20h154v-20h-52l-140 -263l177 -377h60v-20z" />
    <glyph glyph-name="Y" unicode="Y" horiz-adv-x="496" 
d="M496 660h-45l-155 -340v-300h62v-20h-216v20h62v288l-159 352h-45v20h220v-20h-73l136 -302l137 302h-68v20h144v-20z" />
    <glyph glyph-name="Z" unicode="Z" horiz-adv-x="454" 
d="M434 0h-422v20l319 640h-181q-40 0 -61 -44q-8 -17 -18 -62q-5 -23 -8.5 -48t-5.5 -40h-25v214h402v-20l-319 -640h198q21 0 37.5 10.5t25.5 33.5q2 6 7 28q9 43 10 46l16 109h25v-247z" />
    <glyph glyph-name="bracketleft" unicode="[" horiz-adv-x="234" 
d="M214 -80h-174v846h174v-24h-89v-798h89v-24z" />
    <glyph glyph-name="backslash" unicode="\" horiz-adv-x="446" 
d="M441 -73h-50l-386 826h50z" />
    <glyph glyph-name="bracketright" unicode="]" horiz-adv-x="234" 
d="M194 -80h-174v24h89v798h-89v24h174v-846z" />
    <glyph glyph-name="asciicircum" unicode="^" horiz-adv-x="298" 
d="M278 394l-11 -17l-121 68l-115 -68l-11 17l117 117h24z" />
    <glyph glyph-name="underscore" unicode="_" horiz-adv-x="515" 
d="M515 -170h-515v42h515v-42z" />
    <glyph glyph-name="grave" unicode="`" horiz-adv-x="152" 
d="M112 691l15 -20q-19 -12 -37 -35q-17 -19 -20 -36l8 1q21 0 37.5 -16t16.5 -38q0 -24 -15.5 -41t-38.5 -17q-24 0 -41 17t-17 42q0 46 25.5 80.5t66.5 62.5z" />
    <glyph glyph-name="a" unicode="a" horiz-adv-x="439" 
d="M422 0h-122v81l-24 -40q-10 -14 -30 -29q-14 -9 -40 -16t-62 -7q-56 0 -90.5 35.5t-34.5 89.5q0 63 33 95q32 29 79 46q24 8 45 14q7 2 49 12t69 37v79q0 37 -26.5 63.5t-66.5 26.5q-19 0 -39.5 -9.5t-30.5 -22.5q-15 -19 -26 -54.5t-17 -84.5h-26v149q25 16 64.5 31
t79.5 15q31 0 63 -6q30 -4 55 -20t40.5 -43.5t15.5 -71.5v-350h42v-20zM294 289q-27 -16 -59 -27q-34 -9 -61 -25q-29 -15 -49 -44q-10 -14 -15 -32t-5 -44q0 -40 18 -73q19 -31 54 -31q18 0 37.5 10t37 29t30 47.5t12.5 65.5v124z" />
    <glyph glyph-name="b" unicode="b" horiz-adv-x="462" 
d="M442 253q0 -126 -51.5 -195t-151.5 -69q-20 0 -40.5 8.5t-37.5 19.5l-29 19q-12 9 -18 9q-9 0 -18 -12l-9 -17l-5 -16h-25v660h-42v20h128v-244q30 75 112 75q84 0 135 -70q26 -35 39 -81t13 -107zM350 253q0 114 -29 173q-27 61 -72 61q-47 0 -76.5 -46.5t-29.5 -101.5
v-169q0 -30 6 -58.5t18.5 -50t30.5 -35.5q5 -4 15.5 -8.5t24.5 -4.5q58 0 85 59.5t27 180.5z" />
    <glyph glyph-name="c" unicode="c" horiz-adv-x="386" 
d="M367 160q0 -39 -12.5 -69t-33.5 -53.5t-48.5 -36t-57.5 -12.5q-45 0 -83 22q-35 22 -61 60q-10 16 -20 38t-18 46q-13 52 -13 98q0 29 3 52t11 49q14 48 39.5 82t63.5 54.5t85 20.5q22 0 33 -1t33 -7q37 -8 63 -23v-169h-24q-4 29 -7.5 43.5t-12.5 35.5q-13 36 -29 65
q-7 17 -24.5 24.5t-38.5 7.5q-47 0 -75 -57t-28 -175t24.5 -180t81.5 -62q25 0 47 10.5t39.5 28.5t28 43t10.5 55v35h24v-25z" />
    <glyph glyph-name="d" unicode="d" horiz-adv-x="456" 
d="M442 0h-121v84q-9 -38 -42 -66.5t-79 -28.5q-40 0 -73 20.5t-56.5 56t-37 86t-13.5 101.5q0 65 15 112t41.5 80t61.5 49.5t69 16.5q31 0 63 -22q32 -20 44 -56v227h-54v20h140v-660h42v-20zM314 178v145q0 21 -1 31t-6.5 35t-20.5 48q-13 23 -32 36.5t-44 13.5
q-49 0 -73.5 -62t-24.5 -172q0 -54 7 -96q6 -45 19 -76q11 -30 29.5 -49t40.5 -19q25 0 45 14t33.5 37t20.5 52q3 15 5 30t2 32z" />
    <glyph glyph-name="e" unicode="e" horiz-adv-x="415" 
d="M395 294h-280q0 -17 -2 -24l-1 -10q0 -134 33 -190.5t84 -56.5q31 0 58 13t43.5 34t28.5 52t12 61v15h24v-13q0 -40 -11 -72t-36 -61q-47 -53 -126 -53q-44 0 -80.5 19t-64 55t-42.5 84t-15 106q0 60 14 105q13 47 38.5 80.5t61 53t76.5 19.5q82 0 133.5 -49.5
t51.5 -167.5zM305 314q0 52 -8 83q-6 35 -20 54q-12 19 -30.5 27.5t-36.5 8.5q-38 0 -62 -38.5t-33 -134.5h190z" />
    <glyph glyph-name="f" unicode="f" horiz-adv-x="274" 
d="M274 552h-24q-3 33 -11 51q-6 21 -18 42q-6 11 -17 16.5t-20 5.5q-15 0 -25.5 -10.5t-12.5 -28.5v-128h106v-20h-106v-460h72v-20h-200v20h42v460h-42v20h42v72q0 56 36.5 87.5t96.5 31.5q19 0 41.5 -7t39.5 -17v-115z" />
    <glyph glyph-name="g" unicode="g" horiz-adv-x="443" 
d="M426 480h-71q28 -28 40 -62q5 -14 8 -33t3 -41q0 -35 -12.5 -65.5t-34 -51t-52.5 -33.5t-65 -13q-36 0 -63.5 10t-51.5 37q-10 -5 -21.5 -12t-21.5 -14q-18 -12 -18 -50q0 -36 36 -48q38 -11 99 -11q30 0 41 -0.5t34 -4.5q19 0 34.5 -4.5t35.5 -13.5q29 -11 49.5 -38
t20.5 -70q0 -27 -15.5 -52.5t-41.5 -45.5q-26 -22 -61.5 -33.5t-75.5 -11.5q-37 0 -71 6.5t-59 22t-42 38.5q-15 23 -15 55q0 34 55 79q-41 14 -59.5 44t-18.5 63q0 41 21 71q20 26 74 50l-23 43q-9 23 -9 54q0 39 13 70t35.5 51.5t54.5 32.5t66 12h22q11 -3 16 -4l28 -7
h116v-20zM164 344q0 -58 15 -98.5t61 -40.5q44 0 60.5 38t16.5 101q0 68 -14.5 105.5t-62.5 37.5q-41 0 -58.5 -37t-17.5 -106zM366 -64q0 29 -12 44t-34 22t-32.5 8.5t-28.5 1.5l-75 1l-18 -4l-29 -10l-28 -12q-12 -6 -15 -13l-8 -14q-3 -6 -3 -19q0 -39 30 -66t108 -27
q66 0 105.5 26t39.5 62z" />
    <glyph glyph-name="h" unicode="h" horiz-adv-x="449" 
d="M434 0h-170v20h42v370q0 43 -21 66.5t-48 23.5q-32 0 -59 -33q-14 -18 -21.5 -38.5t-7.5 -47.5v-341h42v-20h-170v20h42v640h-42v20h128v-233q19 39 52 51.5t65 12.5q55 0 90.5 -33.5t35.5 -84.5v-373h42v-20z" />
    <glyph glyph-name="i" unicode="i" horiz-adv-x="207" 
d="M64 20v460h-42v20h128v-480h42v-20h-170v20h42zM107 579q-23 0 -40 16q-16 18 -16 40q0 23 16.5 39.5t39.5 16.5t39 -17q17 -15 17 -39q0 -23 -16.5 -39.5t-39.5 -16.5z" />
    <glyph glyph-name="j" unicode="j" horiz-adv-x="209" 
d="M146 -83q0 -46 -29.5 -72t-76.5 -26h-26v20h11q14 0 24.5 17t10.5 42v582h-42v20h128v-583zM103 579q-23 0 -40 16q-16 18 -16 40q0 23 16.5 39.5t39.5 16.5t39 -17q17 -15 17 -39q0 -23 -16.5 -39.5t-39.5 -16.5z" />
    <glyph glyph-name="k" unicode="k" horiz-adv-x="440" 
d="M440 0h-124l-167 253v-233h52v-20h-180v20h42v640h-42v20h128v-410l182 210h-77v20h145v-20h-33l-152 -174l186 -286h40v-20z" />
    <glyph glyph-name="l" unicode="l" horiz-adv-x="212" 
d="M63 20v640h-42v20h128v-660h42v-20h-170v20h42z" />
    <glyph glyph-name="m" unicode="m" horiz-adv-x="672" 
d="M63 20v460h-42v20h122v-68q24 50 58 65q36 14 66 14q36 0 64 -21t45 -56q11 25 25 39t30 23t36 12l32 3q48 0 82 -34.5t34 -83.5v-373h42v-20h-170v20h42v374q0 42 -18 64t-42 22q-14 0 -30.5 -11.5t-29.5 -29.5q-8 -11 -11 -18l-9 -21q-7 -25 -7 -39v-341h42v-20h-170
v20h42v374q0 46 -17 66t-40 20q-18 0 -33 -11q-6 -4 -13.5 -11t-15.5 -16q-13 -16 -21 -38q-3 -10 -5 -21t-2 -22v-341h42v-20h-170v20h42z" />
    <glyph glyph-name="n" unicode="n" horiz-adv-x="448" 
d="M63 20v460h-42v20h122v-68q18 41 50 60q17 9 33.5 14t34.5 5q54 0 92.5 -32t38.5 -82v-377h42v-20h-170v20h42v374q0 42 -21 64t-48 22q-17 0 -32 -9t-27.5 -26t-21.5 -40q-3 -11 -5 -21.5t-2 -22.5v-341h42v-20h-170v20h42z" />
    <glyph glyph-name="o" unicode="o" horiz-adv-x="421" 
d="M401 253q0 -56 -13.5 -104t-38 -82.5t-61.5 -57.5q-35 -20 -77 -20q-39 0 -73.5 19t-60 53.5t-41.5 83.5t-16 108q0 29 3 52t11 49q13 47 38.5 81.5t61 55t77.5 20.5t77.5 -19t59.5 -52.5t38.5 -82t14.5 -104.5zM309 253q0 124 -25 179t-73 55q-45 0 -72 -55t-27 -179
q0 -130 27 -185t72 -55q47 0 72.5 57t25.5 183z" />
    <glyph glyph-name="p" unicode="p" horiz-adv-x="468" 
d="M448 252q0 -56 -15 -105.5t-41 -84t-62 -54t-76 -19.5q-35 0 -62 20.5t-43 52.5v-212h60v-20h-188v20h42v630h-42v20h122v-69q18 37 45 58.5t73 21.5q41 0 75.5 -20t60.5 -56q22 -32 38 -82q13 -50 13 -101zM149 332v-150q0 -72 28.5 -120.5t73.5 -48.5q47 0 77 57
q28 59 28 183q0 114 -29 174t-74 60q-41 0 -72.5 -37.5t-31.5 -117.5z" />
    <glyph glyph-name="q" unicode="q" horiz-adv-x="468" 
d="M448 -170h-188v20h60v213q-16 -30 -44.5 -52t-66.5 -22q-42 0 -77.5 21t-60.5 58q-10 16 -20 38t-18 46q-13 52 -13 100q0 53 12.5 99.5t38.5 81t64.5 56.5t87.5 22q23 0 42.5 -7.5t36.5 -18.5l29 -18q9 -6 18 -8q11 0 17 10l14 31h26v-650h42v-20zM320 165v184
q0 39 -9.5 65.5t-24 41t-34.5 24.5q-16 5 -34 7q-44 0 -75 -62.5t-31 -171.5q0 -60 7 -105t22 -76q29 -59 74 -59q40 0 73 42q16 21 24 47.5t8 62.5z" />
    <glyph glyph-name="r" unicode="r" horiz-adv-x="339" 
d="M329 310h-24q-1 9 -3.5 26t-9.5 44q-7 39 -18 63q-6 15 -16 25t-23 12q-15 0 -30.5 -12.5t-27.5 -30.5t-21 -46q-3 -14 -5 -24.5t-2 -22.5v-324h80v-20h-208v20h42v460h-42v20h122v-78q20 49 53.5 69t55.5 20q20 0 42 -7t35 -17v-177z" />
    <glyph glyph-name="s" unicode="s" horiz-adv-x="369" 
d="M353 150q0 -38 -14 -66q-12 -28 -37 -50t-56.5 -33.5t-69.5 -11.5q-48 0 -85.5 15.5t-64.5 39.5v155h24q4 -27 7 -41t13.5 -49.5t25.5 -58.5q26 -37 82 -37q53 0 85 27t32 69q0 36 -20 57.5t-52 38.5q-17 8 -31 14q-5 2 -38 12.5t-63.5 27.5t-50.5 43t-20 69
q0 65 48.5 102.5t123.5 37.5q45 0 73 -8q30 -7 56 -22v-148h-24q-6 41 -17 68q-4 12 -10.5 29t-12.5 29q-9 16 -27.5 22t-38.5 6q-43 0 -79 -18q-34 -19 -34 -62q0 -30 20 -50q20 -17 51 -31l66 -25q39 -11 68 -29.5t49.5 -46t20.5 -75.5z" />
    <glyph glyph-name="t" unicode="t" horiz-adv-x="297" 
d="M60 500v105h86v-105h103v-20h-103v-406q0 -29 15 -45t33 -16q20 0 37.5 19t17.5 47v109h24v-82q0 -28 -4 -47t-16 -38q-20 -32 -67 -32q-50 0 -88 33.5t-38 80.5v377h-45v20h45z" />
    <glyph glyph-name="u" unicode="u" horiz-adv-x="443" 
d="M426 0h-124v69q-15 -41 -51 -60.5t-67 -19.5q-54 0 -90.5 34.5t-36.5 84.5v372h-42v20h128v-400q0 -36 19 -58t49 -22q33 0 59.5 36.5t26.5 89.5v334h-42v20h128v-480h43v-20z" />
    <glyph glyph-name="v" unicode="v" horiz-adv-x="419" 
d="M419 480h-28l-156 -480h-49l-149 480h-37v20h189v-20h-63l115 -387l123 387h-68v20h123v-20z" />
    <glyph glyph-name="w" unicode="w" horiz-adv-x="634" 
d="M634 480h-30l-156 -480h-39l-92 301l-93 -301h-39l-150 480h-35v20h170v-20h-45l106 -370l72 224l-45 146h-36v20h186v-20h-66l114 -375l122 375h-59v20h115v-20z" />
    <glyph glyph-name="x" unicode="x" horiz-adv-x="435" 
d="M435 0h-198v20h62l-107 202l-127 -202h67v-20h-132v20h37l143 226l-125 234h-38v20h190v-20h-58l91 -168l105 168h-63v20h130v-20h-40l-121 -190l146 -270h38v-20z" />
    <glyph glyph-name="y" unicode="y" horiz-adv-x="435" 
d="M435 480h-31l-187 -591q-9 -29 -29 -49.5t-39 -20.5q-30 0 -59.5 9t-41.5 22v163h25q0 -19 3.5 -39.5t10.5 -43.5q3 -13 7 -29.5t10 -27.5q2 -9 13.5 -15.5t26.5 -7.5q15 0 29.5 14.5t22.5 36.5l30 112l-179 467h-39v20h192v-20h-58l125 -359l109 359h-64v20h123v-20z
" />
    <glyph glyph-name="z" unicode="z" horiz-adv-x="363" 
d="M346 487l-242 -467h111q50 0 68 39q9 23 18 58q3 11 8 35t8 43h25v-195h-330v20l242 460h-120q-14 0 -26 -7.5t-21 -22t-18 -42.5t-17 -73h-25v165h319v-13z" />
    <glyph glyph-name="braceleft" unicode="{" horiz-adv-x="294" 
d="M274 -91h-74q-15 0 -32 8t-32.5 22.5t-26.5 31.5q-10 20 -10 39v245q0 36 -23 60.5t-56 24.5v28q32 0 55.5 25t23.5 59v226q0 40 29.5 69.5t71.5 29.5h74v-24h-14q-30 0 -52.5 -22t-22.5 -53v-227q0 -30 -23 -58t-56 -37q33 -12 56 -41t23 -60v-246q0 -32 22 -54t53 -22
h14v-24z" />
    <glyph glyph-name="bar" unicode="|" horiz-adv-x="130" 
d="M90 -170h-50v850h50v-850z" />
    <glyph glyph-name="braceright" unicode="}" horiz-adv-x="294" 
d="M20 -91v24h14q30 0 52.5 22t22.5 54v246q0 31 22.5 59.5t56.5 41.5q-32 9 -55.5 36.5t-23.5 58.5v227q0 31 -22 53t-53 22h-14v24h74q41 0 71 -29.5t30 -69.5v-226q0 -33 23 -58.5t56 -25.5v-28q-32 0 -55.5 -25t-23.5 -60v-245q0 -22 -11 -39q-9 -18 -24.5 -31
t-34.5 -23q-14 -6 -31 -8h-74z" />
    <glyph glyph-name="asciitilde" unicode="~" horiz-adv-x="321" 
d="M301 283q-13 -34 -37 -49q-24 -13 -44 -13q-14 0 -31 6l-30 14l-30 13q-14 5 -31 7q-32 0 -56 -36l-22 15q17 37 38 51.5t44 14.5q14 0 32 -6l31 -14l31 -13q15 -6 32 -6q14 0 26 8t25 25z" />
    <glyph glyph-name="nonbreakingspace" unicode="&#xa0;" horiz-adv-x="500" 
 />
    <glyph glyph-name="exclamdown" unicode="&#xa1;" horiz-adv-x="194" 
d="M97 -181q-21 0 -36 14q-14 11 -14 36l34 440h32l34 -440q0 -22 -14.5 -36t-35.5 -14zM97 511q23 0 39 -17q17 -15 17 -39q0 -23 -16.5 -39.5t-39.5 -16.5t-40 16q-16 18 -16 40q0 23 16.5 39.5t39.5 16.5z" />
    <glyph glyph-name="exclamdown" unicode="&#x40e;" horiz-adv-x="194" 
d="M97 -181q-21 0 -36 14q-14 11 -14 36l34 440h32l34 -440q0 -22 -14.5 -36t-35.5 -14zM97 511q23 0 39 -17q17 -15 17 -39q0 -23 -16.5 -39.5t-39.5 -16.5t-40 16q-16 18 -16 40q0 23 16.5 39.5t39.5 16.5z" />
    <glyph glyph-name="cent" unicode="&#xa2;" horiz-adv-x="370" 
d="M354 148q0 -38 -12 -68.5t-30.5 -49t-44.5 -30.5q-19 -8 -46 -11v-76h-25v76q-21 0 -39 5.5t-37 17.5q-31 20 -55 54q-20 32 -34 76q-5 20 -8 43t-3 49q0 46 12 87.5t36 72.5q22 31 55 51.5t73 24.5v89h25v-86q28 0 59.5 -8t57.5 -25v-153h-24q-8 48 -20.5 81t-24.5 54
q-7 10 -19.5 17.5t-28.5 10.5v-436q19 0 36.5 8.5t36 27t28 40.5t9.5 50v15l1 15h19zM196 14v435q-38 -9 -63 -65t-25 -149q0 -97 22 -153.5t66 -67.5z" />
    <glyph glyph-name="cent" unicode="&#x45e;" horiz-adv-x="370" 
d="M354 148q0 -38 -12 -68.5t-30.5 -49t-44.5 -30.5q-19 -8 -46 -11v-76h-25v76q-21 0 -39 5.5t-37 17.5q-31 20 -55 54q-20 32 -34 76q-5 20 -8 43t-3 49q0 46 12 87.5t36 72.5q22 31 55 51.5t73 24.5v89h25v-86q28 0 59.5 -8t57.5 -25v-153h-24q-8 48 -20.5 81t-24.5 54
q-7 10 -19.5 17.5t-28.5 10.5v-436q19 0 36.5 8.5t36 27t28 40.5t9.5 50v15l1 15h19zM196 14v435q-38 -9 -63 -65t-25 -149q0 -97 22 -153.5t66 -67.5z" />
    <glyph glyph-name="sterling" unicode="&#xa3;" horiz-adv-x="481" 
d="M459 0h-413v68q42 10 69.5 49t27.5 84q0 22 -5.5 46.5t-14.5 41.5h-103v24h93l-39 91q-18 45 -18 101q0 45 17.5 78.5t47 58t70.5 37t84 12.5q24 0 45 -3t45 -11q46 -12 76 -41v-179h-27l1 4q-10 54 -26 98q-15 47 -30 69q-29 39 -84 39q-64 0 -102.5 -35.5t-38.5 -98.5
q0 -20 1 -29.5t7 -28.5t10 -30.5t10 -26.5l24 -55q11 -24 19 -50h168v-24h-160l6 -27v-26q0 -23 -8 -43.5t-22.5 -39.5t-29.5 -37t-31 -31h309v113h22v-198z" />
    <glyph glyph-name="sterling" unicode="&#x408;" horiz-adv-x="481" 
d="M459 0h-413v68q42 10 69.5 49t27.5 84q0 22 -5.5 46.5t-14.5 41.5h-103v24h93l-39 91q-18 45 -18 101q0 45 17.5 78.5t47 58t70.5 37t84 12.5q24 0 45 -3t45 -11q46 -12 76 -41v-179h-27l1 4q-10 54 -26 98q-15 47 -30 69q-29 39 -84 39q-64 0 -102.5 -35.5t-38.5 -98.5
q0 -20 1 -29.5t7 -28.5t10 -30.5t10 -26.5l24 -55q11 -24 19 -50h168v-24h-160l6 -27v-26q0 -23 -8 -43.5t-22.5 -39.5t-29.5 -37t-31 -31h309v113h22v-198z" />
    <glyph glyph-name="currency" unicode="&#xa4;" horiz-adv-x="420" 
d="M400 84l-22 -22l-50 51q-48 -39 -114 -39q-69 0 -117 44l-55 -56l-22 22l55 56q-40 49 -40 114q0 63 38 113l-53 53l22 22l53 -53q51 45 119 45q34 0 62 -10.5t53 -30.5l49 49l22 -22l-49 -49q18 -21 31 -52t13 -65q0 -33 -13 -65t-32 -54zM356 254q0 60 -41 100.5
t-101 40.5q-30 0 -53.5 -10.5t-44 -30t-31.5 -45.5t-11 -55q0 -31 10.5 -54.5t30 -44t45.5 -31.5t54 -11q31 0 56.5 11t44.5 30t30 45t11 55z" />
    <glyph glyph-name="yen" unicode="&#xa5;" horiz-adv-x="496" 
d="M496 660h-45l-133 -293h112v-24h-124l-10 -24v-54h134v-24h-134v-221h62v-20h-216v20h62v221h-140v24h140v43l-14 35h-126v24h113l-139 293h-38v20h220v-20h-73l134 -307l139 307h-68v20h144v-20z" />
    <glyph glyph-name="yen" unicode="&#x490;" horiz-adv-x="496" 
d="M496 660h-45l-133 -293h112v-24h-124l-10 -24v-54h134v-24h-134v-221h62v-20h-216v20h62v221h-140v24h140v43l-14 35h-126v24h113l-139 293h-38v20h220v-20h-73l134 -307l139 307h-68v20h144v-20z" />
    <glyph glyph-name="brokenbar" unicode="&#xa6;" horiz-adv-x="130" 
d="M90 303h-50v377h50v-377zM90 -170h-50v377h50v-377z" />
    <glyph glyph-name="section" unicode="&#xa7;" horiz-adv-x="472" 
d="M452 225q0 -41 -23 -78q-21 -38 -63 -55q41 -41 41 -103q0 -35 -15 -67q-13 -32 -39 -54q-24 -23 -57.5 -36t-67.5 -13q-19 0 -38.5 3t-40.5 10q-40 12 -76 31v182h27q10 -62 22 -106.5t26 -63.5q7 -18 32 -25q13 -3 25 -5t26 -2q52 0 88.5 31.5t36.5 75.5q0 45 -36 74
q-18 14 -47 31q-22 13 -34 19l-76 32q-17 7 -35 16t-35 19q-30 19 -53 49q-20 29 -20 75q0 21 5.5 41t18.5 41t29 34.5t39 21.5q-24 21 -42 55q-8 18 -12 33.5t-4 34.5q0 75 54.5 120t142.5 45q33 0 74 -15q13 -4 31 -11.5t35 -17.5v-178h-27q-11 61 -24.5 107t-27.5 64
q-10 15 -29 21t-45 6q-57 0 -90 -32q-33 -30 -33 -86q0 -46 31 -73q14 -11 33.5 -22.5t41.5 -23.5l79 -35q38 -15 74 -39q32 -21 55 -52.5t23 -78.5zM407 186q0 36 -27.5 62.5t-69.5 48.5l-88 42q-45 20 -84 45q-32 -7 -53 -34q-18 -26 -18 -44q0 -40 28 -63t73 -43l90 -38
q49 -18 86 -47q63 21 63 71z" />
    <glyph glyph-name="dieresis" unicode="&#xa8;" horiz-adv-x="505" 
d="M166 345v-325h197q48 0 63 54q20 65 34 171h25v-256h-465v31h54v640h-54v20h455v-218h-26l-16 82q-9 43 -27 80q-6 13 -23 23.5t-35 12.5h-182v-296h69q35 0 48 26q9 18 19 51q4 14 6.5 28t4.5 31h25v-288h-25q0 26 -11 57q-9 30 -19 50q-14 26 -48 26h-69zM348 701
q-23 0 -40 16q-16 18 -16 40q0 23 16.5 39.5t39.5 16.5t39 -17q17 -15 17 -39q0 -23 -16.5 -39.5t-39.5 -16.5zM166 701q-23 0 -40 16q-16 18 -16 40q0 23 16.5 39.5t39.5 16.5t39 -17q17 -15 17 -39q0 -23 -16.5 -39.5t-39.5 -16.5z" />
    <glyph glyph-name="dieresis" unicode="&#x401;" horiz-adv-x="505" 
d="M166 345v-325h197q48 0 63 54q20 65 34 171h25v-256h-465v31h54v640h-54v20h455v-218h-26l-16 82q-9 43 -27 80q-6 13 -23 23.5t-35 12.5h-182v-296h69q35 0 48 26q9 18 19 51q4 14 6.5 28t4.5 31h25v-288h-25q0 26 -11 57q-9 30 -19 50q-14 26 -48 26h-69zM348 701
q-23 0 -40 16q-16 18 -16 40q0 23 16.5 39.5t39.5 16.5t39 -17q17 -15 17 -39q0 -23 -16.5 -39.5t-39.5 -16.5zM166 701q-23 0 -40 16q-16 18 -16 40q0 23 16.5 39.5t39.5 16.5t39 -17q17 -15 17 -39q0 -23 -16.5 -39.5t-39.5 -16.5z" />
    <glyph glyph-name="copyright" unicode="&#xa9;" horiz-adv-x="720" 
d="M700 337q0 -71 -27 -134.5t-72.5 -110.5t-108 -75t-132.5 -28q-69 0 -131 27t-108.5 74t-73.5 111t-27 136q0 37 6 70t20 67q27 64 73 112.5t109 76.5q33 14 64 21t68 7q70 0 132 -27.5t108 -76t73 -112.5t27 -138zM669 337q0 65 -24 124t-66 103.5t-99 70t-120 25.5
q-32 0 -61.5 -6t-59.5 -20q-54 -23 -97 -68t-67 -103t-24 -126q0 -65 24 -122.5t65.5 -100t98.5 -69.5q59 -25 121 -25q64 0 119.5 24.5t98 67.5t67 101.5t24.5 123.5zM481 140q-20 -21 -52 -30q-16 -4 -30.5 -6t-31.5 -2q-86 0 -138.5 63t-52.5 173q0 49 13 91q6 21 15 40
t23 36q23 32 60 52t80 20q23 0 53 -6t55 -23v-119h-22q-5 34 -12.5 60t-18.5 46q-3 9 -19 15.5t-35 6.5q-27 0 -50.5 -17.5t-38.5 -46t-25 -69t-10 -84.5q0 -101 35 -159.5t88 -58.5q22 0 39.5 7t24.5 22l14 52l14 67h22v-130z" />
    <glyph glyph-name="ordfeminine" unicode="&#xaa;" horiz-adv-x="327" 
d="M287 384h-74v45q-10 -23 -30 -37.5t-63 -14.5q-33 0 -56.5 21t-23.5 54q0 39 20 56t50 30l56 17q27 6 43 22v46q0 20 -16.5 34t-38.5 14q-13 0 -24 -5t-19 -13q-6 -10 -14 -32l-9 -47h-23v90q39 27 91 27q39 0 71.5 -18.5t32.5 -66.5v-204h27v-18zM287 320h-236v32h236
v-32zM209 554q-14 -9 -35 -16l-37 -15q-17 -8 -31 -24.5t-14 -43.5q0 -24 12 -42q13 -16 35 -16q20 0 45 21t25 66v70z" />
    <glyph glyph-name="ordfeminine" unicode="&#x404;" horiz-adv-x="327" 
d="M287 384h-74v45q-10 -23 -30 -37.5t-63 -14.5q-33 0 -56.5 21t-23.5 54q0 39 20 56t50 30l56 17q27 6 43 22v46q0 20 -16.5 34t-38.5 14q-13 0 -24 -5t-19 -13q-6 -10 -14 -32l-9 -47h-23v90q39 27 91 27q39 0 71.5 -18.5t32.5 -66.5v-204h27v-18zM287 320h-236v32h236
v-32zM209 554q-14 -9 -35 -16l-37 -15q-17 -8 -31 -24.5t-14 -43.5q0 -24 12 -42q13 -16 35 -16q20 0 45 21t25 66v70z" />
    <glyph glyph-name="guillemotleft" unicode="&#xab;" horiz-adv-x="321" 
d="M301 79l-19 -18l-44 48l-27 36q-7 10 -13.5 23t-12.5 28q-9 26 -9 55q0 54 34 107q10 17 31 42q18 21 20 24q9 10 21 21l19 -18q-14 -25 -24.5 -47t-17.5 -42q-14 -42 -14 -87q0 -25 3 -45.5t11 -42.5q15 -39 42 -84zM243 23l-17 -20l-75 54q-37 30 -57 51q-34 34 -55 70
q-19 38 -19 73q0 39 20 72q20 36 55 69l55 47l76 57l17 -20l-23 -18l-25 -24l-23 -25l-18 -21q-23 -30 -39 -67.5t-16 -69.5q0 -28 15.5 -63t37.5 -64l41 -52z" />
    <glyph glyph-name="logicalnot" unicode="&#xac;" horiz-adv-x="562" 
d="M522 154h-49v175h-433v49h482v-224z" />
    <glyph glyph-name="registered" unicode="&#xae;" horiz-adv-x="719" 
d="M699 337q0 -71 -26 -134.5t-72.5 -110.5t-108 -75t-133.5 -28q-69 0 -131 27t-108 74t-73 111t-27 136q0 37 6 70t20 67q27 64 72 112t109 77q33 14 64 21t68 7q72 0 133 -27.5t107 -76t73 -112.5t27 -138zM668 337q0 65 -24 124t-66 103.5t-99 70t-120 25.5
q-65 0 -119.5 -24.5t-97.5 -69.5t-67 -103t-24 -126q0 -65 24 -122.5t65.5 -100t99 -68.5t119.5 -26q64 0 120 25q31 13 54 28.5t45 39.5q42 42 66 99.5t24 124.5zM545 111h-76l-160 230h-7v-210h40v-20h-137v20h37v418h-37v20h181q56 0 99 -29.5t43 -78.5q0 -50 -42.5 -81
t-107.5 -39l150 -210h17v-20zM371 549h-69v-188h67q49 0 71 30t22 68q0 39 -26 64q-24 26 -65 26z" />
    <glyph glyph-name="degree" unicode="&#xb0;" horiz-adv-x="268" 
d="M248 576q0 -50 -32 -82.5t-81 -32.5t-82 32.5t-33 82.5q0 47 33 81t82 34q48 0 80.5 -33.5t32.5 -81.5zM135 666q-35 0 -62.5 -26.5t-27.5 -63.5q0 -38 27 -64t63 -26t62 26t26 64q0 37 -26 63q-24 27 -62 27z" />
    <glyph glyph-name="plusminus" unicode="&#xb1;" horiz-adv-x="572" 
d="M532 330h-222v-222h-48v222h-222v48h222v221h48v-221h222v-48zM532 0h-492v48h492v-48z" />
    <glyph glyph-name="twosuperior" unicode="&#xb2;" horiz-adv-x="315" 
d="M270 276h-230v45l78 71q55 52 80 105q22 53 22 87q0 43 -20 65t-49 22q-37 0 -48.5 -21t-17.5 -52l-7 -49h-20v121q4 2 20 6.5t29 7.5t25 5t25 2q53 0 85.5 -29.5t32.5 -77.5q0 -26 -9 -51t-29 -52q-36 -50 -93 -100l-65 -57h171v56h20v-104z" />
    <glyph glyph-name="twosuperior" unicode="&#x406;" horiz-adv-x="315" 
d="M270 276h-230v45l78 71q55 52 80 105q22 53 22 87q0 43 -20 65t-49 22q-37 0 -48.5 -21t-17.5 -52l-7 -49h-20v121q4 2 20 6.5t29 7.5t25 5t25 2q53 0 85.5 -29.5t32.5 -77.5q0 -26 -9 -51t-29 -52q-36 -50 -93 -100l-65 -57h171v56h20v-104z" />
    <glyph glyph-name="threesuperior" unicode="&#xb3;" horiz-adv-x="320" 
d="M150 691q55 0 87 -26q32 -24 32 -74q0 -36 -22 -61.5t-63 -39.5l1 -1q40 -9 67.5 -39t27.5 -65q0 -25 -10.5 -46t-29.5 -37t-44 -25q-12 -4 -23.5 -6t-26.5 -2q-30 0 -60 9t-46 23v111h20l10 -50q6 -29 16 -48q6 -11 25 -20q18 -6 35 -6q33 0 55 26.5t22 65.5
q0 46 -20 73t-60 27h-25l-2 4v5v5l2 4h25q30 0 51 25.5t21 67.5q0 36 -18 58t-52 22q-12 0 -30 -5t-23 -16q-11 -23 -15 -46l-6 -51h-21v116q16 8 44.5 15t55.5 7z" />
    <glyph glyph-name="threesuperior" unicode="&#x456;" horiz-adv-x="320" 
d="M150 691q55 0 87 -26q32 -24 32 -74q0 -36 -22 -61.5t-63 -39.5l1 -1q40 -9 67.5 -39t27.5 -65q0 -25 -10.5 -46t-29.5 -37t-44 -25q-12 -4 -23.5 -6t-26.5 -2q-30 0 -60 9t-46 23v111h20l10 -50q6 -29 16 -48q6 -11 25 -20q18 -6 35 -6q33 0 55 26.5t22 65.5
q0 46 -20 73t-60 27h-25l-2 4v5v5l2 4h25q30 0 51 25.5t21 67.5q0 36 -18 58t-52 22q-12 0 -30 -5t-23 -16q-11 -23 -15 -46l-6 -51h-21v116q16 8 44.5 15t55.5 7z" />
    <glyph glyph-name="mu" unicode="&#xb5;" horiz-adv-x="459" 
d="M439 0h-124v69q-6 -23 -20 -38l-11 -11t-17 -12t-28 -12l-28 -5l-33 1q-17 2 -24 5v-80q0 -46 -30.5 -72t-76.5 -26h-25v19h6l5 1q35 3 35 59v583h-38v19h124v-410q0 -30 21 -53q22 -20 49 -20q33 0 58 37q13 20 20.5 43.5t7.5 49.5v334h-39v19h125v-481h43v-19z" />
    <glyph glyph-name="paragraph" unicode="&#xb6;" horiz-adv-x="313" 
d="M293 -170h-92v850h92v-19h-43v-812h43v-19zM155 -170h-93v19h44v659q-35 0 -61 25q-25 27 -25 61q0 36 26 61t60 25h49v-850z" />
    <glyph glyph-name="cedilla" unicode="&#xb8;" horiz-adv-x="415" 
d="M393 294h-278q0 -17 -2 -24l-1 -10q0 -134 33 -190.5t84 -56.5q31 0 58 13t43.5 34t28.5 52t12 61v15h22v-13q0 -78 -45.5 -132t-125.5 -54q-44 0 -80.5 19t-64 55t-42.5 84t-15 106q0 60 14 105q13 47 38.5 80.5t61 53t76.5 19.5q82 0 132.5 -49t50.5 -168zM305 314
q0 52 -8 83q-6 35 -20 54q-12 19 -30.5 27.5t-36.5 8.5q-38 0 -62 -38.5t-33 -134.5h190zM299 579q-23 0 -40 16q-16 18 -16 40q0 23 16.5 39.5t39.5 16.5t39 -17q17 -15 17 -39q0 -23 -16.5 -39.5t-39.5 -16.5zM117 579q-23 0 -40 16q-16 18 -16 40q0 23 16.5 39.5
t39.5 16.5t39 -17q17 -15 17 -39q0 -23 -16.5 -39.5t-39.5 -16.5z" />
    <glyph glyph-name="cedilla" unicode="&#x451;" horiz-adv-x="415" 
d="M393 294h-278q0 -17 -2 -24l-1 -10q0 -134 33 -190.5t84 -56.5q31 0 58 13t43.5 34t28.5 52t12 61v15h22v-13q0 -78 -45.5 -132t-125.5 -54q-44 0 -80.5 19t-64 55t-42.5 84t-15 106q0 60 14 105q13 47 38.5 80.5t61 53t76.5 19.5q82 0 132.5 -49t50.5 -168zM305 314
q0 52 -8 83q-6 35 -20 54q-12 19 -30.5 27.5t-36.5 8.5q-38 0 -62 -38.5t-33 -134.5h190zM299 579q-23 0 -40 16q-16 18 -16 40q0 23 16.5 39.5t39.5 16.5t39 -17q17 -15 17 -39q0 -23 -16.5 -39.5t-39.5 -16.5zM117 579q-23 0 -40 16q-16 18 -16 40q0 23 16.5 39.5
t39.5 16.5t39 -17q17 -15 17 -39q0 -23 -16.5 -39.5t-39.5 -16.5z" />
    <glyph glyph-name="onesuperior" unicode="&#xb9;" horiz-adv-x="854" 
d="M678 105q-34 0 -59.5 17t-42 46t-27.5 72q-4 20 -6 39.5t-2 45.5q0 49 8.5 87t25 67t43 47t60.5 18t60 -17.5t42.5 -47t25.5 -70.5q4 -20 6 -39.5t2 -44.5q0 -44 -8.5 -84.5t-25.5 -71t-42.5 -47.5t-59.5 -17zM678 125q19 0 34 16.5t24 43.5t15 64q3 25 4 37t1 39
q0 20 -1 40t-4 38q0 17 -3.5 32.5t-10.5 30.5q-9 28 -25 42q-14 16 -34 16q-19 0 -34 -15t-26 -43q-4 -13 -8 -32t-7 -42t-3.5 -40t-0.5 -27q0 -19 1 -38t5 -48t13 -54.5t25 -42.5t35 -17zM796 0h-236v48h236v-48zM542 661h-54v-661h-43l-348 636v-617h80v-19h-157v19h54
v642h-54v19h160l285 -520v501h-79v19h156v-19z" />
    <glyph glyph-name="onesuperior" unicode="&#x2116;" horiz-adv-x="854" 
d="M678 105q-34 0 -59.5 17t-42 46t-27.5 72q-4 20 -6 39.5t-2 45.5q0 49 8.5 87t25 67t43 47t60.5 18t60 -17.5t42.5 -47t25.5 -70.5q4 -20 6 -39.5t2 -44.5q0 -44 -8.5 -84.5t-25.5 -71t-42.5 -47.5t-59.5 -17zM678 125q19 0 34 16.5t24 43.5t15 64q3 25 4 37t1 39
q0 20 -1 40t-4 38q0 17 -3.5 32.5t-10.5 30.5q-9 28 -25 42q-14 16 -34 16q-19 0 -34 -15t-26 -43q-4 -13 -8 -32t-7 -42t-3.5 -40t-0.5 -27q0 -19 1 -38t5 -48t13 -54.5t25 -42.5t35 -17zM796 0h-236v48h236v-48zM542 661h-54v-661h-43l-348 636v-617h80v-19h-157v19h54
v642h-54v19h160l285 -520v501h-79v19h156v-19z" />
    <glyph glyph-name="ordmasculine" unicode="&#xba;" horiz-adv-x="309" 
d="M269 535q0 -66 -30.5 -112t-83.5 -46q-51 0 -83 45t-32 113q0 66 30 111t85 45q52 0 83 -43.5t31 -112.5zM259 320h-208v32h208v-32zM213 535q0 75 -15.5 105.5t-42.5 30.5q-26 0 -44 -31q-15 -30 -15 -105q0 -76 15 -107t44 -31q27 0 42.5 30.5t15.5 107.5z" />
    <glyph glyph-name="ordmasculine" unicode="&#x454;" horiz-adv-x="309" 
d="M269 535q0 -66 -30.5 -112t-83.5 -46q-51 0 -83 45t-32 113q0 66 30 111t85 45q52 0 83 -43.5t31 -112.5zM259 320h-208v32h208v-32zM213 535q0 75 -15.5 105.5t-42.5 30.5q-26 0 -44 -31q-15 -30 -15 -105q0 -76 15 -107t44 -31q27 0 42.5 30.5t15.5 107.5z" />
    <glyph glyph-name="guillemotright" unicode="&#xbb;" horiz-adv-x="321" 
d="M95 496l33 -24l37 -29l35 -28l26 -23q35 -32 55 -69q20 -34 20 -72q0 -37 -19 -72.5t-55 -70.5l-26 -23l-35 -29l-37 -29l-34 -24l-17 20l22 22l26 27l24 28l19 24q20 27 38 64q15 33 15 63q0 32 -15.5 68t-39.5 69q-7 10 -19 21l-24 25l-25 24l-21 18zM145 251
q0 -29 -10 -55.5t-25 -50.5q-7 -12 -33 -41l-39 -43l-18 18q25 40 40.5 82.5t15.5 89.5q0 48 -13.5 86.5t-42.5 89.5l18 18l18 -20l21 -23l20 -24q9 -10 13 -20q35 -52 35 -107z" />
    <glyph glyph-name="onequarter" unicode="&#xbc;" horiz-adv-x="637" 
d="M195 277h-122v18h40v328q-18 -18 -32 -27l-33 -21l-8 14q23 15 55 42q29 23 49 60h21v-396h30v-18zM496 680l-325 -680h-34l326 680h33zM576 0h-127v20h46v104h-164v23l188 267h28v-266h50v-24h-50v-104h29v-20zM495 148v194l-137 -194h137z" />
    <glyph glyph-name="onequarter" unicode="&#x458;" horiz-adv-x="637" 
d="M195 277h-122v18h40v328q-18 -18 -32 -27l-33 -21l-8 14q23 15 55 42q29 23 49 60h21v-396h30v-18zM496 680l-325 -680h-34l326 680h33zM576 0h-127v20h46v104h-164v23l188 267h28v-266h50v-24h-50v-104h29v-20zM495 148v194l-137 -194h137z" />
    <glyph glyph-name="onehalf" unicode="&#xbd;" horiz-adv-x="664" 
d="M619 0h-230v45l78 71q57 52 79.5 105t22.5 87q0 41 -20.5 64t-48.5 23q-37 0 -50 -23q-8 -18 -16 -50l-7 -49h-20v121q4 2 20 6.5t29 7.5t25 5t25 2q55 0 86.5 -29.5t31.5 -77.5q0 -26 -9 -51t-29 -52q-36 -50 -93 -100l-65 -57h171v56h20v-104zM477 680l-325 -680h-34
l326 680h33zM195 277h-122v18h40v328q-18 -18 -32 -27l-33 -21l-8 14q23 15 55 42q29 23 49 60h21v-396h30v-18z" />
    <glyph glyph-name="onehalf" unicode="&#x405;" horiz-adv-x="664" 
d="M619 0h-230v45l78 71q57 52 79.5 105t22.5 87q0 41 -20.5 64t-48.5 23q-37 0 -50 -23q-8 -18 -16 -50l-7 -49h-20v121q4 2 20 6.5t29 7.5t25 5t25 2q55 0 86.5 -29.5t31.5 -77.5q0 -26 -9 -51t-29 -52q-36 -50 -93 -100l-65 -57h171v56h20v-104zM477 680l-325 -680h-34
l326 680h33zM195 277h-122v18h40v328q-18 -18 -32 -27l-33 -21l-8 14q23 15 55 42q29 23 49 60h21v-396h30v-18z" />
    <glyph glyph-name="threequarters" unicode="&#xbe;" horiz-adv-x="644" 
d="M525 680l-325 -680h-34l326 680h33zM598 0h-127v20h46v104h-164v23l188 267h28v-266h50v-24h-50v-104h29v-20zM517 148v194l-137 -194h137zM150 691q55 0 87 -26q32 -24 32 -74q0 -36 -22 -61.5t-63 -39.5l1 -1q40 -9 67.5 -39t27.5 -65q0 -25 -10.5 -46t-29.5 -37
t-44 -25q-12 -4 -23.5 -6t-26.5 -2q-30 0 -60 9t-46 23v111h20l10 -50q6 -29 16 -48q6 -11 25 -20q18 -6 35 -6q33 0 55 26.5t22 65.5q0 46 -20 73t-60 27h-25l-2 4v5v5l2 4h25q30 0 51 25.5t21 67.5q0 36 -18 58t-52 22q-12 0 -30 -5t-23 -16q-11 -23 -15 -46l-6 -51h-21
v116q16 8 44.5 15t55.5 7z" />
    <glyph glyph-name="threequarters" unicode="&#x455;" horiz-adv-x="644" 
d="M525 680l-325 -680h-34l326 680h33zM598 0h-127v20h46v104h-164v23l188 267h28v-266h50v-24h-50v-104h29v-20zM517 148v194l-137 -194h137zM150 691q55 0 87 -26q32 -24 32 -74q0 -36 -22 -61.5t-63 -39.5l1 -1q40 -9 67.5 -39t27.5 -65q0 -25 -10.5 -46t-29.5 -37
t-44 -25q-12 -4 -23.5 -6t-26.5 -2q-30 0 -60 9t-46 23v111h20l10 -50q6 -29 16 -48q6 -11 25 -20q18 -6 35 -6q33 0 55 26.5t22 65.5q0 46 -20 73t-60 27h-25l-2 4v5v5l2 4h25q30 0 51 25.5t21 67.5q0 36 -18 58t-52 22q-12 0 -30 -5t-23 -16q-11 -23 -15 -46l-6 -51h-21
v116q16 8 44.5 15t55.5 7z" />
    <glyph glyph-name="questiondown" unicode="&#xbf;" horiz-adv-x="408" 
d="M387 48v-205q-4 -1 -28 -7.5t-41 -9.5t-38 -5t-43 -2q-96 0 -147 41t-51 108q0 44 14.5 73t35 52t47.5 42l46 35q22 17 36.5 34.5t14.5 40.5v53h26v-53q0 -31 -18 -61l-39 -61q-21 -31 -39 -68t-18 -86q0 -26 10.5 -49.5t25.5 -40t32.5 -26t32.5 -10.5q20 0 42 11
t30.5 27.5t23.5 58.5q11 35 19 108h26zM246 511q23 0 39 -17q17 -15 17 -39q0 -23 -16.5 -39.5t-39.5 -16.5t-40 16q-16 18 -16 40q0 23 16.5 39.5t39.5 16.5z" />
    <glyph glyph-name="questiondown" unicode="&#x457;" horiz-adv-x="408" 
d="M387 48v-205q-4 -1 -28 -7.5t-41 -9.5t-38 -5t-43 -2q-96 0 -147 41t-51 108q0 44 14.5 73t35 52t47.5 42l46 35q22 17 36.5 34.5t14.5 40.5v53h26v-53q0 -31 -18 -61l-39 -61q-21 -31 -39 -68t-18 -86q0 -26 10.5 -49.5t25.5 -40t32.5 -26t32.5 -10.5q20 0 42 11
t30.5 27.5t23.5 58.5q11 35 19 108h26zM246 511q23 0 39 -17q17 -15 17 -39q0 -23 -16.5 -39.5t-39.5 -16.5t-40 16q-16 18 -16 40q0 23 16.5 39.5t39.5 16.5z" />
    <glyph glyph-name="Agrave" unicode="&#xc0;" horiz-adv-x="567" 
d="M567 0h-212v20h70l-80 250h-196l-78 -250h81v-20h-152v20h42l206 660h60l217 -660h42v-20zM340 290l-92 295l-94 -295h186z" />
    <glyph glyph-name="Agrave" unicode="&#x410;" horiz-adv-x="567" 
d="M567 0h-212v20h70l-80 250h-196l-78 -250h81v-20h-152v20h42l206 660h60l217 -660h42v-20zM340 290l-92 295l-94 -295h186z" />
    <glyph glyph-name="Aacute" unicode="&#xc1;" horiz-adv-x="547" 
d="M527 194q0 -39 -17 -75t-47.5 -61.5t-71 -41.5t-86.5 -16h-285v20h54v640h-54v20h457v-217h-25q-4 28 -9 51t-13 46q-11 40 -27 68q-7 12 -21.5 22t-31.5 10h-184v-273h161q41 0 77.5 -15.5t63.5 -41t43 -62t16 -74.5zM430 199q0 34 -13 63q-12 31 -35 52q-21 23 -52 36
q-8 3 -25 8t-37 5h-102v-343h119q31 0 57 14t45 37.5t31 57t12 70.5z" />
    <glyph glyph-name="Aacute" unicode="&#x411;" horiz-adv-x="547" 
d="M527 194q0 -39 -17 -75t-47.5 -61.5t-71 -41.5t-86.5 -16h-285v20h54v640h-54v20h457v-217h-25q-4 28 -9 51t-13 46q-11 40 -27 68q-7 12 -21.5 22t-31.5 10h-184v-273h161q41 0 77.5 -15.5t63.5 -41t43 -62t16 -74.5zM430 199q0 34 -13 63q-12 31 -35 52q-21 23 -52 36
q-8 3 -25 8t-37 5h-102v-343h119q31 0 57 14t45 37.5t31 57t12 70.5z" />
    <glyph glyph-name="Acircumflex" unicode="&#xc2;" horiz-adv-x="551" 
d="M531 185q0 -39 -15.5 -72.5t-44 -58.5t-68.5 -39.5t-85 -14.5h-298v20h54v640h-54v20h279q86 0 140 -47t54 -122q0 -51 -39 -90.5t-102 -57.5v-5q80 -7 129.5 -53.5t49.5 -119.5zM396 511q0 27 -9 54t-26.5 47.5t-45.5 34t-60 13.5h-89v-288h95q32 0 55 11.5t41.5 30
t28.5 44.5q4 12 7 25.5t3 27.5zM435 187q0 30 -11.5 60t-30.5 50.5t-48 35.5t-62 15h-117v-328h132q30 0 54 12.5t43 35.5t29.5 54t10.5 65z" />
    <glyph glyph-name="Acircumflex" unicode="&#x412;" horiz-adv-x="551" 
d="M531 185q0 -39 -15.5 -72.5t-44 -58.5t-68.5 -39.5t-85 -14.5h-298v20h54v640h-54v20h279q86 0 140 -47t54 -122q0 -51 -39 -90.5t-102 -57.5v-5q80 -7 129.5 -53.5t49.5 -119.5zM396 511q0 27 -9 54t-26.5 47.5t-45.5 34t-60 13.5h-89v-288h95q32 0 55 11.5t41.5 30
t28.5 44.5q4 12 7 25.5t3 27.5zM435 187q0 30 -11.5 60t-30.5 50.5t-48 35.5t-62 15h-117v-328h132q30 0 54 12.5t43 35.5t29.5 54t10.5 65z" />
    <glyph glyph-name="Atilde" unicode="&#xc3;" horiz-adv-x="441" 
d="M431 463h-25q-6 36 -20.5 85.5t-28.5 79.5q-5 12 -20 22t-33 10h-139v-640h74v-20h-219v20h53v640h-53v20h411v-217z" />
    <glyph glyph-name="Atilde" unicode="&#x413;" horiz-adv-x="441" 
d="M431 463h-25q-6 36 -20.5 85.5t-28.5 79.5q-5 12 -20 22t-33 10h-139v-640h74v-20h-219v20h53v640h-53v20h411v-217z" />
    <glyph glyph-name="Adieresis" unicode="&#xc4;" horiz-adv-x="586" 
d="M62 20l199 660h56l206 -660h51v-190h-24q-6 35 -18 73q-7 21 -12 34t-14 30q-6 16 -23 24.5t-34 8.5h-317q-35 0 -51.5 -31t-28.5 -66l-16 -73h-25v190h51zM424 20l-167 554l-163 -554h330z" />
    <glyph glyph-name="Adieresis" unicode="&#x414;" horiz-adv-x="586" 
d="M62 20l199 660h56l206 -660h51v-190h-24q-6 35 -18 73q-7 21 -12 34t-14 30q-6 16 -23 24.5t-34 8.5h-317q-35 0 -51.5 -31t-28.5 -66l-16 -73h-25v190h51zM424 20l-167 554l-163 -554h330z" />
    <glyph glyph-name="Aring" unicode="&#xc5;" horiz-adv-x="505" 
d="M487 0h-467v20h54v640h-54v20h455v-217h-26l-5 35t-11 49q-9 42 -27 78q-6 12 -23 22.5t-35 12.5h-182v-294h69q36 0 48 24q9 18 19 51l11 59h24v-288h-24q-3 27 -11 56t-19.5 53.5t-47.5 24.5h-69v-326h197q48 0 63 54q20 65 34 171h27v-245z" />
    <glyph glyph-name="Aring" unicode="&#x415;" horiz-adv-x="505" 
d="M487 0h-467v20h54v640h-54v20h455v-217h-26l-5 35t-11 49q-9 42 -27 78q-6 12 -23 22.5t-35 12.5h-182v-294h69q36 0 48 24q9 18 19 51l11 59h24v-288h-24q-3 27 -11 56t-19.5 53.5t-47.5 24.5h-69v-326h197q48 0 63 54q20 65 34 171h27v-245z" />
    <glyph glyph-name="AE" unicode="&#xc6;" horiz-adv-x="854" 
d="M854 0h-126l-255 346v-326h54v-20h-200v20h54v328l-255 -348h-126v20h35l282 379l-237 261h-48v20h153v-20h-69l265 -293v293h-54v20h200v-20h-54v-293l265 293h-69v20h153v-20h-48l-237 -261l282 -379h35v-20z" />
    <glyph glyph-name="AE" unicode="&#x416;" horiz-adv-x="854" 
d="M854 0h-126l-255 346v-326h54v-20h-200v20h54v328l-255 -348h-126v20h35l282 379l-237 261h-48v20h153v-20h-69l265 -293v293h-54v20h200v-20h-54v-293l265 293h-69v20h153v-20h-48l-237 -261l282 -379h35v-20z" />
    <glyph glyph-name="Ccedilla" unicode="&#xc7;" horiz-adv-x="475" 
d="M455 181q0 -41 -18 -76t-49.5 -60t-79.5 -42q-47 -14 -100 -14q-49 0 -104 15t-84 38v185h26q5 -31 7.5 -43.5t12.5 -45.5q14 -49 34 -82q14 -26 45 -35q16 -4 29 -6t29 -2q71 0 114 45t43 114q0 79 -42.5 127.5t-107.5 48.5h-39l-3 5l-1 8l1 7l3 6h38q51 0 89.5 40.5
t38.5 110.5q0 69 -29 105.5t-104 36.5q-30 0 -51 -11t-37 -28q-23 -31 -35.5 -77t-18.5 -89h-26v198q13 7 37 13l44 10l47 6l44 2q112 0 165.5 -42t53.5 -124q0 -61 -36.5 -102t-103.5 -60l1 -3q34 -6 63.5 -21.5t53 -39.5t37 -54.5t13.5 -63.5z" />
    <glyph glyph-name="Ccedilla" unicode="&#x417;" horiz-adv-x="475" 
d="M455 181q0 -41 -18 -76t-49.5 -60t-79.5 -42q-47 -14 -100 -14q-49 0 -104 15t-84 38v185h26q5 -31 7.5 -43.5t12.5 -45.5q14 -49 34 -82q14 -26 45 -35q16 -4 29 -6t29 -2q71 0 114 45t43 114q0 79 -42.5 127.5t-107.5 48.5h-39l-3 5l-1 8l1 7l3 6h38q51 0 89.5 40.5
t38.5 110.5q0 69 -29 105.5t-104 36.5q-30 0 -51 -11t-37 -28q-23 -31 -35.5 -77t-18.5 -89h-26v198q13 7 37 13l44 10l47 6l44 2q112 0 165.5 -42t53.5 -124q0 -61 -36.5 -102t-103.5 -60l1 -3q34 -6 63.5 -21.5t53 -39.5t37 -54.5t13.5 -63.5z" />
    <glyph glyph-name="Egrave" unicode="&#xc8;" horiz-adv-x="584" 
d="M419 20v519l-254 -449v-70h54v-20h-200v20h54v640h-54v20h200v-20h-54v-512l254 448v64h-54v20h200v-20h-54v-640h54v-20h-200v20h54z" />
    <glyph glyph-name="Egrave" unicode="&#x418;" horiz-adv-x="584" 
d="M419 20v519l-254 -449v-70h54v-20h-200v20h54v640h-54v20h200v-20h-54v-512l254 448v64h-54v20h200v-20h-54v-640h54v-20h-200v20h54z" />
    <glyph glyph-name="Eacute" unicode="&#xc9;" horiz-adv-x="584" 
d="M450 792q0 -39 -46 -63.5t-112 -24.5q-65 0 -112.5 24t-47.5 64q0 20 15.5 36.5t36.5 16.5t36 -15.5t15 -37.5q0 -12 -6.5 -25t-17.5 -18q6 -10 33 -19q12 -3 24.5 -5t23.5 -2q13 0 21 1t25 6q24 8 33 19q-7 5 -17 18q-6 12 -6 25q0 20 15.5 36.5t35.5 16.5
q22 0 36.5 -16t14.5 -37zM419 20v519l-254 -449v-70h54v-20h-200v20h54v640h-54v20h200v-20h-54v-512l254 448v64h-54v20h200v-20h-54v-640h54v-20h-200v20h54z" />
    <glyph glyph-name="Eacute" unicode="&#x419;" horiz-adv-x="584" 
d="M450 792q0 -39 -46 -63.5t-112 -24.5q-65 0 -112.5 24t-47.5 64q0 20 15.5 36.5t36.5 16.5t36 -15.5t15 -37.5q0 -12 -6.5 -25t-17.5 -18q6 -10 33 -19q12 -3 24.5 -5t23.5 -2q13 0 21 1t25 6q24 8 33 19q-7 5 -17 18q-6 12 -6 25q0 20 15.5 36.5t35.5 16.5
q22 0 36.5 -16t14.5 -37zM419 20v519l-254 -449v-70h54v-20h-200v20h54v640h-54v20h200v-20h-54v-512l254 448v64h-54v20h200v-20h-54v-640h54v-20h-200v20h54z" />
    <glyph glyph-name="Ecircumflex" unicode="&#xca;" horiz-adv-x="551" 
d="M551 0h-126l-259 346v-326h54v-20h-200v20h54v640h-54v20h200v-20h-54v-289l269 289h-69v20h153v-20h-47l-244 -259l288 -381h35v-20z" />
    <glyph glyph-name="Ecircumflex" unicode="&#x41a;" horiz-adv-x="551" 
d="M551 0h-126l-259 346v-326h54v-20h-200v20h54v640h-54v20h200v-20h-54v-289l269 289h-69v20h153v-20h-47l-244 -259l288 -381h35v-20z" />
    <glyph glyph-name="Edieresis" unicode="&#xcb;" horiz-adv-x="554" 
d="M413 20l-172 554l-167 -554h77v-20h-151v20h42l203 660h57l210 -660h42v-20h-212v20h71z" />
    <glyph glyph-name="Edieresis" unicode="&#x41b;" horiz-adv-x="554" 
d="M413 20l-172 554l-167 -554h77v-20h-151v20h42l203 660h57l210 -660h42v-20h-212v20h71z" />
    <glyph glyph-name="Igrave" unicode="&#xcc;" horiz-adv-x="703" 
d="M683 0h-223v20h77v605l-201 -625h-35l-204 624v-604h76v-20h-153v20h53v640h-53v20h155l179 -545l172 545h157v-20h-54v-640h54v-20z" />
    <glyph glyph-name="Igrave" unicode="&#x41c;" horiz-adv-x="703" 
d="M683 0h-223v20h77v605l-201 -625h-35l-204 624v-604h76v-20h-153v20h53v640h-53v20h155l179 -545l172 545h157v-20h-54v-640h54v-20z" />
    <glyph glyph-name="Iacute" unicode="&#xcd;" horiz-adv-x="585" 
d="M419 20v328h-253v-328h54v-20h-200v20h54v640h-54v20h200v-20h-54v-288h253v288h-54v20h200v-20h-54v-640h54v-20h-200v20h54z" />
    <glyph glyph-name="Iacute" unicode="&#x41d;" horiz-adv-x="585" 
d="M419 20v328h-253v-328h54v-20h-200v20h54v640h-54v20h200v-20h-54v-288h253v288h-54v20h200v-20h-54v-640h54v-20h-200v20h54z" />
    <glyph glyph-name="Icircumflex" unicode="&#xce;" horiz-adv-x="547" 
d="M527 344q0 -80 -18.5 -144.5t-51.5 -111t-80.5 -73t-104.5 -26.5q-58 0 -103 25.5t-79 72.5t-52 112t-18 144q0 78 18.5 140.5t51.5 108.5t80.5 72.5t103.5 26.5q57 0 102.5 -25t78.5 -70.5t52.5 -111.5t19.5 -140zM421 344q0 168 -36 245.5t-111 77.5t-111.5 -78.5
t-36.5 -244.5q0 -179 35.5 -255t110.5 -76q80 0 114.5 77t34.5 254z" />
    <glyph glyph-name="Icircumflex" unicode="&#x41e;" horiz-adv-x="547" 
d="M527 344q0 -80 -18.5 -144.5t-51.5 -111t-80.5 -73t-104.5 -26.5q-58 0 -103 25.5t-79 72.5t-52 112t-18 144q0 78 18.5 140.5t51.5 108.5t80.5 72.5t103.5 26.5q57 0 102.5 -25t78.5 -70.5t52.5 -111.5t19.5 -140zM421 344q0 168 -36 245.5t-111 77.5t-111.5 -78.5
t-36.5 -244.5q0 -179 35.5 -255t110.5 -76q80 0 114.5 77t34.5 254z" />
    <glyph glyph-name="Idieresis" unicode="&#xcf;" horiz-adv-x="584" 
d="M73 20v640h-53v20h544v-20h-53v-640h54v-20h-200v20h54v640h-254v-640h54v-20h-200v20h54z" />
    <glyph glyph-name="Idieresis" unicode="&#x41f;" horiz-adv-x="584" 
d="M73 20v640h-53v20h544v-20h-53v-640h54v-20h-200v20h54v640h-254v-640h54v-20h-200v20h54z" />
    <glyph glyph-name="Eth" unicode="&#xd0;" horiz-adv-x="516" 
d="M500 500q0 -81 -64.5 -123t-173.5 -42h-96v-315h76v-20h-223v20h54v640h-54v20h263q106 0 162 -50t56 -130zM400 500q0 33 -10 60q-9 29 -27.5 51.5t-43.5 35.5q-7 3 -23 8t-36 5h-94v-305h90q36 0 63 11.5t45 32.5t27 47.5t9 53.5z" />
    <glyph glyph-name="Eth" unicode="&#x420;" horiz-adv-x="516" 
d="M500 500q0 -81 -64.5 -123t-173.5 -42h-96v-315h76v-20h-223v20h54v640h-54v20h263q106 0 162 -50t56 -130zM400 500q0 33 -10 60q-9 29 -27.5 51.5t-43.5 35.5q-7 3 -23 8t-36 5h-94v-305h90q36 0 63 11.5t45 32.5t27 47.5t9 53.5z" />
    <glyph glyph-name="Ntilde" unicode="&#xd1;" horiz-adv-x="488" 
d="M468 44q-25 -32 -71.5 -43.5t-94.5 -11.5q-64 0 -115.5 23.5t-91.5 69.5q-35 44 -56 110q-19 68 -19 146q0 73 19 135.5t55.5 111t90.5 77.5t119 29q36 0 75 -10q21 -5 39 -12t39 -20v-169h-26q-6 41 -17 80.5t-28 68.5q-10 18 -33.5 28t-48.5 10q-42 0 -74 -26.5
t-56 -72.5t-36.5 -104.5t-12.5 -122.5q0 -76 12.5 -135t36 -101.5t57.5 -68.5q34 -23 72 -23q31 0 58 13.5t37 39t23 73.5l21 98h26v-193z" />
    <glyph glyph-name="Ntilde" unicode="&#x421;" horiz-adv-x="488" 
d="M468 44q-25 -32 -71.5 -43.5t-94.5 -11.5q-64 0 -115.5 23.5t-91.5 69.5q-35 44 -56 110q-19 68 -19 146q0 73 19 135.5t55.5 111t90.5 77.5t119 29q36 0 75 -10q21 -5 39 -12t39 -20v-169h-26q-6 41 -17 80.5t-28 68.5q-10 18 -33.5 28t-48.5 10q-42 0 -74 -26.5
t-56 -72.5t-36.5 -104.5t-12.5 -122.5q0 -76 12.5 -135t36 -101.5t57.5 -68.5q34 -23 72 -23q31 0 58 13.5t37 39t23 73.5l21 98h26v-193z" />
    <glyph glyph-name="Ograve" unicode="&#xd2;" horiz-adv-x="463" 
d="M185 20v640h-55q-22 0 -37 -13.5t-24 -33.5q-14 -34 -21 -74l-11 -77h-25v218h438v-218h-25l-12 78q-6 43 -20 73q-9 18 -24.5 32.5t-36.5 14.5h-55v-640h62v-20h-216v20h62z" />
    <glyph glyph-name="Ograve" unicode="&#x422;" horiz-adv-x="463" 
d="M185 20v640h-55q-22 0 -37 -13.5t-24 -33.5q-14 -34 -21 -74l-11 -77h-25v218h438v-218h-25l-12 78q-6 43 -20 73q-9 18 -24.5 32.5t-36.5 14.5h-55v-640h62v-20h-216v20h62z" />
    <glyph glyph-name="Oacute" unicode="&#xd3;" horiz-adv-x="518" 
d="M518 660h-43l-192 -589q-12 -32 -35.5 -57t-62.5 -25q-36 0 -74.5 9t-58.5 22v236h25l8 -50q2 -14 3.5 -23t7.5 -31l14 -53l15 -44q6 -15 23 -26q17 -9 39 -9q19 0 39 12t27 31l10 32l-211 565h-42v20h213v-20h-71l159 -428l138 428h-83v20h152v-20z" />
    <glyph glyph-name="Oacute" unicode="&#x423;" horiz-adv-x="518" 
d="M518 660h-43l-192 -589q-12 -32 -35.5 -57t-62.5 -25q-36 0 -74.5 9t-58.5 22v236h25l8 -50q2 -14 3.5 -23t7.5 -31l14 -53l15 -44q6 -15 23 -26q17 -9 39 -9q19 0 39 12t27 31l10 32l-211 565h-42v20h213v-20h-71l159 -428l138 428h-83v20h152v-20z" />
    <glyph glyph-name="Ocircumflex" unicode="&#xd4;" horiz-adv-x="698" 
d="M681 344q0 -47 -18 -91t-51.5 -76t-81.5 -50.5t-106 -18.5h-29v-88h54v-20h-200v20h54v88h-29q-56 0 -104 18t-81.5 50t-52.5 75t-19 93q0 52 19 93t52.5 73.5t78.5 50.5t95 18h41v81h-54v20h200v-20h-54v-81h43q49 0 93 -17t78 -50q33 -30 52 -74q10 -21 15 -43.5
t5 -50.5zM580 344q0 41 -12 80q-5 17 -13 34.5t-19 32.5q-20 29 -51.5 46.5t-68.5 17.5h-21v-422h23q38 0 68.5 17t50.5 45t31.5 67.5t11.5 81.5zM303 133v422h-21q-40 0 -70.5 -17t-50.5 -47q-20 -27 -31.5 -66.5t-11.5 -80.5q0 -44 10.5 -81.5t30.5 -66.5t50.5 -46
t68.5 -17h25z" />
    <glyph glyph-name="Ocircumflex" unicode="&#x424;" horiz-adv-x="698" 
d="M681 344q0 -47 -18 -91t-51.5 -76t-81.5 -50.5t-106 -18.5h-29v-88h54v-20h-200v20h54v88h-29q-56 0 -104 18t-81.5 50t-52.5 75t-19 93q0 52 19 93t52.5 73.5t78.5 50.5t95 18h41v81h-54v20h200v-20h-54v-81h43q49 0 93 -17t78 -50q33 -30 52 -74q10 -21 15 -43.5
t5 -50.5zM580 344q0 41 -12 80q-5 17 -13 34.5t-19 32.5q-20 29 -51.5 46.5t-68.5 17.5h-21v-422h23q38 0 68.5 17t50.5 45t31.5 67.5t11.5 81.5zM303 133v422h-21q-40 0 -70.5 -17t-50.5 -47q-20 -27 -31.5 -66.5t-11.5 -80.5q0 -44 10.5 -81.5t30.5 -66.5t50.5 -46
t68.5 -17h25z" />
    <glyph glyph-name="Otilde" unicode="&#xd5;" horiz-adv-x="538" 
d="M538 0h-223v20h59l-135 286l-153 -286h73v-20h-159v20h54l171 314l-152 326h-49v20h220v-20h-67l108 -231l124 231h-70v20h154v-20h-52l-140 -263l177 -377h60v-20z" />
    <glyph glyph-name="Otilde" unicode="&#x425;" horiz-adv-x="538" 
d="M538 0h-223v20h59l-135 286l-153 -286h73v-20h-159v20h54l171 314l-152 326h-49v20h220v-20h-67l108 -231l124 231h-70v20h154v-20h-52l-140 -263l177 -377h60v-20z" />
    <glyph glyph-name="Odieresis" unicode="&#xd6;" horiz-adv-x="603" 
d="M420 20v640h-54v20h200v-20h-54v-640h79v-190h-25q-3 18 -7 36.5t-10 36.5q-11 36 -25 64q-5 11 -22 23q-14 8 -31 10h-451v20h54v640h-54v20h200v-20h-54v-640h254z" />
    <glyph glyph-name="Odieresis" unicode="&#x426;" horiz-adv-x="603" 
d="M420 20v640h-54v20h200v-20h-54v-640h79v-190h-25q-3 18 -7 36.5t-10 36.5q-11 36 -25 64q-5 11 -22 23q-14 8 -31 10h-451v20h54v640h-54v20h200v-20h-54v-640h254z" />
    <glyph glyph-name="multiply" unicode="&#xd7;" horiz-adv-x="561" 
d="M541 0h-198v20h52v293h-150q-83 0 -132 46.5t-49 111.5v189h-54v20h198v-20h-52v-194q0 -53 33 -93.5t90 -40.5h116v328h-52v20h198v-20h-53v-640h53v-20z" />
    <glyph glyph-name="multiply" unicode="&#x427;" horiz-adv-x="561" 
d="M541 0h-198v20h52v293h-150q-83 0 -132 46.5t-49 111.5v189h-54v20h198v-20h-52v-194q0 -53 33 -93.5t90 -40.5h116v328h-52v20h198v-20h-53v-640h53v-20z" />
    <glyph glyph-name="Oslash" unicode="&#xd8;" horiz-adv-x="885" 
d="M864 0h-844v20h54v640h-54v20h198v-20h-52v-640h230v640h-53v20h199v-20h-54v-640h230v640h-52v20h198v-20h-54v-640h54v-20z" />
    <glyph glyph-name="Oslash" unicode="&#x428;" horiz-adv-x="885" 
d="M864 0h-844v20h54v640h-54v20h198v-20h-52v-640h230v640h-53v20h199v-20h-54v-640h230v640h-52v20h198v-20h-54v-640h54v-20z" />
    <glyph glyph-name="Ugrave" unicode="&#xd9;" horiz-adv-x="885" 
d="M719 20v640h-54v20h200v-20h-54v-640h79v-190h-25q-6 35 -17 70.5t-25 66.5q-5 11 -22 23q-14 8 -31 10h-749v20h54v640h-54v20h200v-20h-54v-640h230v640h-54v20h200v-20h-54v-640h230z" />
    <glyph glyph-name="Ugrave" unicode="&#x429;" horiz-adv-x="885" 
d="M719 20v640h-54v20h200v-20h-54v-640h79v-190h-25q-6 35 -17 70.5t-25 66.5q-5 11 -22 23q-14 8 -31 10h-749v20h54v640h-54v20h200v-20h-54v-640h230v640h-54v20h200v-20h-54v-640h230z" />
    <glyph glyph-name="Uacute" unicode="&#xda;" horiz-adv-x="633" 
d="M617 194q0 -40 -18.5 -76t-49.5 -61t-74 -41t-91 -16h-253v20h53v640h-55q-22 0 -36 -14q-5 -5 -11.5 -14t-11.5 -19q-14 -34 -21 -74l-11 -77h-25v218h334v-20h-71v-273h115q47 0 88 -15.5t71 -41t48.5 -61t18.5 -75.5zM519 194q0 33 -12 64t-32 54.5t-48.5 37
t-58.5 13.5h-92v-343h100q30 0 56 13.5t45 37t30.5 56t11.5 67.5z" />
    <glyph glyph-name="Uacute" unicode="&#x42a;" horiz-adv-x="633" 
d="M617 194q0 -40 -18.5 -76t-49.5 -61t-74 -41t-91 -16h-253v20h53v640h-55q-22 0 -36 -14q-5 -5 -11.5 -14t-11.5 -19q-14 -34 -21 -74l-11 -77h-25v218h334v-20h-71v-273h115q47 0 88 -15.5t71 -41t48.5 -61t18.5 -75.5zM519 194q0 33 -12 64t-32 54.5t-48.5 37
t-58.5 13.5h-92v-343h100q30 0 56 13.5t45 37t30.5 56t11.5 67.5z" />
    <glyph glyph-name="Ucircumflex" unicode="&#xdb;" horiz-adv-x="725" 
d="M560 20v640h-54v20h200v-20h-54v-640h54v-20h-200v20h54zM506 194q0 -40 -18.5 -76t-49 -61t-74 -41t-91.5 -16h-253v20h54v640h-54v20h217v-20h-71v-273h114q46 0 87.5 -15t72 -41.5t48.5 -61.5t18 -75zM408 194q0 33 -12.5 65t-31.5 54.5t-47.5 36t-59.5 13.5h-91v-343
h100q29 0 55 13.5t45 37t30.5 56t11.5 67.5z" />
    <glyph glyph-name="Ucircumflex" unicode="&#x42b;" horiz-adv-x="725" 
d="M560 20v640h-54v20h200v-20h-54v-640h54v-20h-200v20h54zM506 194q0 -40 -18.5 -76t-49 -61t-74 -41t-91.5 -16h-253v20h54v640h-54v20h217v-20h-71v-273h114q46 0 87.5 -15t72 -41.5t48.5 -61.5t18 -75zM408 194q0 33 -12.5 65t-31.5 54.5t-47.5 36t-59.5 13.5h-91v-343
h100q29 0 55 13.5t45 37t30.5 56t11.5 67.5z" />
    <glyph glyph-name="Udieresis" unicode="&#xdc;" horiz-adv-x="522" 
d="M506 194q0 -40 -18.5 -76t-49.5 -61t-74 -41t-91 -16h-253v20h54v640h-54v20h217v-20h-71v-273h114q46 0 87.5 -15t72 -41.5t48.5 -61.5t18 -75zM408 194q0 33 -12 64t-32 54.5t-48.5 37t-58.5 13.5h-91v-343h100q29 0 55 13.5t45 37t30.5 56t11.5 67.5z" />
    <glyph glyph-name="Udieresis" unicode="&#x42c;" horiz-adv-x="522" 
d="M506 194q0 -40 -18.5 -76t-49.5 -61t-74 -41t-91 -16h-253v20h54v640h-54v20h217v-20h-71v-273h114q46 0 87.5 -15t72 -41.5t48.5 -61.5t18 -75zM408 194q0 33 -12 64t-32 54.5t-48.5 37t-58.5 13.5h-91v-343h100q29 0 55 13.5t45 37t30.5 56t11.5 67.5z" />
    <glyph glyph-name="Yacute" unicode="&#xdd;" horiz-adv-x="488" 
d="M468 339q0 -83 -20 -146q-18 -65 -55 -110t-89 -69.5t-118 -24.5q-52 0 -95 11q-45 10 -71 44v193h26q7 -47 10 -60q0 -1 10.5 -42t23.5 -73q9 -21 36 -36q29 -13 59 -13q78 0 128 90t50 245h-96q-36 0 -49 -23q-4 -10 -8.5 -22t-8 -24.5t-6.5 -28t-6 -32.5h-25v288h25
q0 -21 3 -35q5 -16 8.5 -28.5t7.5 -23t10 -23.5q15 -24 49 -24h96q0 54 -16 112q-12 53 -35 93t-55.5 65t-72.5 25q-11 0 -22 -1.5t-30 -10.5t-30 -26q-33 -63 -48 -153h-26v173q35 21 79 32q18 4 39.5 7t37.5 3q66 0 118.5 -27.5t88.5 -75t57 -113.5q10 -32 15 -64.5
t5 -71.5z" />
    <glyph glyph-name="Yacute" unicode="&#x42d;" horiz-adv-x="488" 
d="M468 339q0 -83 -20 -146q-18 -65 -55 -110t-89 -69.5t-118 -24.5q-52 0 -95 11q-45 10 -71 44v193h26q7 -47 10 -60q0 -1 10.5 -42t23.5 -73q9 -21 36 -36q29 -13 59 -13q78 0 128 90t50 245h-96q-36 0 -49 -23q-4 -10 -8.5 -22t-8 -24.5t-6.5 -28t-6 -32.5h-25v288h25
q0 -21 3 -35q5 -16 8.5 -28.5t7.5 -23t10 -23.5q15 -24 49 -24h96q0 54 -16 112q-12 53 -35 93t-55.5 65t-72.5 25q-11 0 -22 -1.5t-30 -10.5t-30 -26q-33 -63 -48 -153h-26v173q35 21 79 32q18 4 39.5 7t37.5 3q66 0 118.5 -27.5t88.5 -75t57 -113.5q10 -32 15 -64.5
t5 -71.5z" />
    <glyph glyph-name="Thorn" unicode="&#xde;" horiz-adv-x="755" 
d="M738 347q0 -79 -18.5 -144t-52 -112.5t-80.5 -74.5t-103 -27q-57 0 -102.5 25t-79 72.5t-52 113.5t-18.5 141v7h-66v-328h54v-20h-200v20h54v640h-54v20h200v-20h-54v-288h66q0 63 20.5 123.5t53.5 103t80 67.5t100 25q56 0 101.5 -24.5t78.5 -69.5t53 -110
q9 -32 14 -66.5t5 -73.5zM632 347q0 167 -35.5 243.5t-110.5 76.5q-77 0 -112.5 -76.5t-35.5 -243.5q0 -179 35 -256.5t111 -77.5q77 0 112.5 78.5t35.5 255.5z" />
    <glyph glyph-name="Thorn" unicode="&#x42e;" horiz-adv-x="755" 
d="M738 347q0 -79 -18.5 -144t-52 -112.5t-80.5 -74.5t-103 -27q-57 0 -102.5 25t-79 72.5t-52 113.5t-18.5 141v7h-66v-328h54v-20h-200v20h54v640h-54v20h200v-20h-54v-288h66q0 63 20.5 123.5t53.5 103t80 67.5t100 25q56 0 101.5 -24.5t78.5 -69.5t53 -110
q9 -32 14 -66.5t5 -73.5zM632 347q0 167 -35.5 243.5t-110.5 76.5q-77 0 -112.5 -76.5t-35.5 -243.5q0 -179 35 -256.5t111 -77.5q77 0 112.5 78.5t35.5 255.5z" />
    <glyph glyph-name="germandbls" unicode="&#xdf;" horiz-adv-x="554" 
d="M388 20v327h-21l-223 -347h-144v20h44l214 327q-45 0 -82.5 14t-65.5 37t-42.5 52.5t-14.5 60.5q0 39 16.5 70.5t45.5 53t67.5 33.5t82.5 12h269v-20h-54v-640h54v-20h-200v20h54zM388 371v289h-101q-59 0 -96 -43t-37 -106q0 -28 7.5 -52.5t22.5 -43.5t43 -33
q12 -5 28.5 -8t35.5 -3h97z" />
    <glyph glyph-name="germandbls" unicode="&#x42f;" horiz-adv-x="554" 
d="M388 20v327h-21l-223 -347h-144v20h44l214 327q-45 0 -82.5 14t-65.5 37t-42.5 52.5t-14.5 60.5q0 39 16.5 70.5t45.5 53t67.5 33.5t82.5 12h269v-20h-54v-640h54v-20h-200v20h54zM388 371v289h-101q-59 0 -96 -43t-37 -106q0 -28 7.5 -52.5t22.5 -43.5t43 -33
q12 -5 28.5 -8t35.5 -3h97z" />
    <glyph glyph-name="agrave" unicode="&#xe0;" horiz-adv-x="439" 
d="M423 0h-123v81l-24 -40q-10 -14 -30 -29q-14 -9 -40 -16t-62 -7q-56 0 -90.5 35.5t-34.5 89.5q0 63 33 95q32 29 79 46q24 8 45 14q7 2 49 12t69 37v79q0 37 -26.5 63.5t-66.5 26.5q-25 0 -41.5 -6.5t-28.5 -25.5q-12 -16 -26 -57q-5 -16 -9 -35t-8 -47h-26v149
q26 26 65 36q17 4 38.5 7t40.5 3q34 0 64 -6.5t54.5 -22t40 -43.5t15.5 -69v-350h43v-20zM294 289q-27 -16 -59 -27q-34 -9 -61 -25q-29 -15 -49 -44q-10 -14 -15 -32t-5 -44q0 -40 18 -73q19 -31 54 -31q18 0 37.5 10t37 29t30 47.5t12.5 65.5v124z" />
    <glyph glyph-name="agrave" unicode="&#x430;" horiz-adv-x="439" 
d="M423 0h-123v81l-24 -40q-10 -14 -30 -29q-14 -9 -40 -16t-62 -7q-56 0 -90.5 35.5t-34.5 89.5q0 63 33 95q32 29 79 46q24 8 45 14q7 2 49 12t69 37v79q0 37 -26.5 63.5t-66.5 26.5q-25 0 -41.5 -6.5t-28.5 -25.5q-12 -16 -26 -57q-5 -16 -9 -35t-8 -47h-26v149
q26 26 65 36q17 4 38.5 7t40.5 3q34 0 64 -6.5t54.5 -22t40 -43.5t15.5 -69v-350h43v-20zM294 289q-27 -16 -59 -27q-34 -9 -61 -25q-29 -15 -49 -44q-10 -14 -15 -32t-5 -44q0 -40 18 -73q19 -31 54 -31q18 0 37.5 10t37 29t30 47.5t12.5 65.5v124z" />
    <glyph glyph-name="aacute" unicode="&#xe1;" horiz-adv-x="424" 
d="M404 237q0 -53 -13.5 -97.5t-38 -78t-61 -53t-77.5 -19.5q-39 0 -74 22.5t-60 60.5t-41 91.5t-16 113.5q0 91 9.5 166.5t29.5 130.5t50 86t70 31q35 0 64.5 -12t52.5 -12t39.5 7.5t25.5 16.5l17 -11q-12 -29 -37 -54.5t-52 -25.5h-15h-10q-7 2 -10 2l-25 4l-23 5l-27 2
q-28 0 -50.5 -19.5t-40.5 -55.5q-13 -29 -26 -80q-6 -29 -8.5 -50.5t-2.5 -48.5q27 55 64.5 84.5t95.5 29.5q41 0 77 -18.5t60 -49.5t38.5 -75t14.5 -93zM312 237q0 103 -26 157.5t-72 54.5q-45 0 -72 -55.5t-27 -156.5q0 -55 6 -95.5t20 -70.5q27 -58 73 -58q45 0 71.5 59
t26.5 165z" />
    <glyph glyph-name="aacute" unicode="&#x431;" horiz-adv-x="424" 
d="M404 237q0 -53 -13.5 -97.5t-38 -78t-61 -53t-77.5 -19.5q-39 0 -74 22.5t-60 60.5t-41 91.5t-16 113.5q0 91 9.5 166.5t29.5 130.5t50 86t70 31q35 0 64.5 -12t52.5 -12t39.5 7.5t25.5 16.5l17 -11q-12 -29 -37 -54.5t-52 -25.5h-15h-10q-7 2 -10 2l-25 4l-23 5l-27 2
q-28 0 -50.5 -19.5t-40.5 -55.5q-13 -29 -26 -80q-6 -29 -8.5 -50.5t-2.5 -48.5q27 55 64.5 84.5t95.5 29.5q41 0 77 -18.5t60 -49.5t38.5 -75t14.5 -93zM312 237q0 103 -26 157.5t-72 54.5q-45 0 -72 -55.5t-27 -156.5q0 -55 6 -95.5t20 -70.5q27 -58 73 -58q45 0 71.5 59
t26.5 165z" />
    <glyph glyph-name="acircumflex" unicode="&#xe2;" horiz-adv-x="451" 
d="M434 133q0 -27 -12.5 -52t-33 -41.5t-52.5 -29.5q-30 -10 -61 -10h-255v20h42v460h-42v20h231q33 0 60 -9.5t49 -25.5t33 -38q3 -4 8 -18t5 -27q0 -40 -25.5 -74.5t-69.5 -42.5q22 0 47 -14q23 -11 39 -28.5t26.5 -42t10.5 -47.5zM229 480h-81v-204h82q37 0 63.5 30.5
t26.5 72.5t-26.5 71.5t-64.5 29.5zM342 137q0 47 -31 81t-77 34h-86v-232h85q49 0 79 32.5t30 84.5z" />
    <glyph glyph-name="acircumflex" unicode="&#x432;" horiz-adv-x="451" 
d="M434 133q0 -27 -12.5 -52t-33 -41.5t-52.5 -29.5q-30 -10 -61 -10h-255v20h42v460h-42v20h231q33 0 60 -9.5t49 -25.5t33 -38q3 -4 8 -18t5 -27q0 -40 -25.5 -74.5t-69.5 -42.5q22 0 47 -14q23 -11 39 -28.5t26.5 -42t10.5 -47.5zM229 480h-81v-204h82q37 0 63.5 30.5
t26.5 72.5t-26.5 71.5t-64.5 29.5zM342 137q0 47 -31 81t-77 34h-86v-232h85q49 0 79 32.5t30 84.5z" />
    <glyph glyph-name="atilde" unicode="&#xe3;" horiz-adv-x="354" 
d="M341 310h-24l-5 34l-7 38q-2 9 -3 17t-5 19l-10 29q-6 16 -17 23.5t-25 9.5h-96v-460h80v-20h-209v20h43v460h-43v20h321v-190z" />
    <glyph glyph-name="atilde" unicode="&#x433;" horiz-adv-x="354" 
d="M341 310h-24l-5 34l-7 38q-2 9 -3 17t-5 19l-10 29q-6 16 -17 23.5t-25 9.5h-96v-460h80v-20h-209v20h43v460h-43v20h321v-190z" />
    <glyph glyph-name="adieresis" unicode="&#xe4;" horiz-adv-x="438" 
d="M428 -170h-24q-3 30 -10.5 67.5t-9.5 46t-8.5 24t-17 23t-25.5 9.5h-228q-28 0 -42 -33q-7 -18 -17 -64l-12 -73h-24v190h35l149 480h49l143 -480h42v-190zM297 20l-109 386l-118 -386h227z" />
    <glyph glyph-name="adieresis" unicode="&#x434;" horiz-adv-x="438" 
d="M428 -170h-24q-3 30 -10.5 67.5t-9.5 46t-8.5 24t-17 23t-25.5 9.5h-228q-28 0 -42 -33q-7 -18 -17 -64l-12 -73h-24v190h35l149 480h49l143 -480h42v-190zM297 20l-109 386l-118 -386h227z" />
    <glyph glyph-name="aring" unicode="&#xe5;" horiz-adv-x="415" 
d="M393 294h-278q0 -17 -2 -24l-1 -10q0 -134 33 -190.5t84 -56.5q31 0 58 13t43.5 34t28.5 52t12 61v15h22v-13q0 -78 -45.5 -132t-125.5 -54q-44 0 -80.5 19t-64 55t-42.5 84t-15 106q0 60 14 105q13 47 38.5 80.5t61 53t76.5 19.5q82 0 132.5 -49t50.5 -168zM305 314
q0 52 -8 83q-6 35 -20 54q-12 19 -30.5 27.5t-36.5 8.5q-38 0 -62 -38.5t-33 -134.5h190z" />
    <glyph glyph-name="aring" unicode="&#x435;" horiz-adv-x="415" 
d="M393 294h-278q0 -17 -2 -24l-1 -10q0 -134 33 -190.5t84 -56.5q31 0 58 13t43.5 34t28.5 52t12 61v15h22v-13q0 -78 -45.5 -132t-125.5 -54q-44 0 -80.5 19t-64 55t-42.5 84t-15 106q0 60 14 105q13 47 38.5 80.5t61 53t76.5 19.5q82 0 132.5 -49t50.5 -168zM305 314
q0 52 -8 83q-6 35 -20 54q-12 19 -30.5 27.5t-36.5 8.5q-38 0 -62 -38.5t-33 -134.5h190z" />
    <glyph glyph-name="ae" unicode="&#xe6;" horiz-adv-x="668" 
d="M668 0h-122l-169 249v-229h52v-20h-190v20h52v228l-169 -248h-122v20h35l194 285l-155 175h-33v20h137v-20h-74l187 -215v215h-43v20h172v-20h-43v-215l187 215h-74v20h137v-20h-33l-154 -177l193 -283h35v-20z" />
    <glyph glyph-name="ae" unicode="&#x436;" horiz-adv-x="668" 
d="M668 0h-122l-169 249v-229h52v-20h-190v20h52v228l-169 -248h-122v20h35l194 285l-155 175h-33v20h137v-20h-74l187 -215v215h-43v20h172v-20h-43v-215l187 215h-74v20h137v-20h-33l-154 -177l193 -283h35v-20z" />
    <glyph glyph-name="ccedilla" unicode="&#xe7;" horiz-adv-x="405" 
d="M385 131q0 -29 -15.5 -54.5t-42.5 -45t-62.5 -31t-72.5 -11.5t-67.5 12.5t-53.5 34.5t-38 53q-13 33 -13 64v34h24v-31q0 -30 10 -55.5t29 -45t44 -31t54 -11.5q47 0 79.5 37.5t32.5 89.5q0 24 -7 42t-25 37q-31 34 -77 34h-39v22h38q36 0 62.5 30.5t26.5 73.5
q0 42 -26.5 75t-64.5 33q-22 0 -45 -9t-31.5 -22t-15.5 -29t-14 -36l-16 -71h-24v161q27 13 74 22q23 4 41 6t37 2q37 0 67.5 -9.5t53.5 -28.5q24 -16 37 -40t13 -50q0 -39 -24 -74.5t-72 -43.5q49 -4 86 -43.5t37 -90.5z" />
    <glyph glyph-name="ccedilla" unicode="&#x437;" horiz-adv-x="405" 
d="M385 131q0 -29 -15.5 -54.5t-42.5 -45t-62.5 -31t-72.5 -11.5t-67.5 12.5t-53.5 34.5t-38 53q-13 33 -13 64v34h24v-31q0 -30 10 -55.5t29 -45t44 -31t54 -11.5q47 0 79.5 37.5t32.5 89.5q0 24 -7 42t-25 37q-31 34 -77 34h-39v22h38q36 0 62.5 30.5t26.5 73.5
q0 42 -26.5 75t-64.5 33q-22 0 -45 -9t-31.5 -22t-15.5 -29t-14 -36l-16 -71h-24v161q27 13 74 22q23 4 41 6t37 2q37 0 67.5 -9.5t53.5 -28.5q24 -16 37 -40t13 -50q0 -39 -24 -74.5t-72 -43.5q49 -4 86 -43.5t37 -90.5z" />
    <glyph glyph-name="egrave" unicode="&#xe8;" horiz-adv-x="472" 
d="M452 0h-167v20h39v352l-176 -283v-69h40v-20h-168v20h42v460h-42v20h168v-20h-40v-339l176 281v58h-39v20h167v-20h-42v-460h42v-20z" />
    <glyph glyph-name="egrave" unicode="&#x438;" horiz-adv-x="472" 
d="M452 0h-167v20h39v352l-176 -283v-69h40v-20h-168v20h42v460h-42v20h168v-20h-40v-339l176 281v58h-39v20h167v-20h-42v-460h42v-20z" />
    <glyph glyph-name="eacute" unicode="&#xe9;" horiz-adv-x="455" 
d="M377 641q0 -35 -43 -59q-21 -10 -47 -16t-57 -6q-62 0 -105 22.5t-43 58.5q0 19 15 34.5t34 15.5q18 0 32.5 -16t14.5 -34q0 -13 -6.5 -22.5t-18.5 -14.5q6 -11 33 -18t44 -7q21 0 43 6.5t34 18.5q-10 3 -19 13q-5 9 -7 24q0 18 13.5 34t33.5 16q19 0 34 -15.5t15 -34.5z
M446 0h-168v20h39v352l-175 -283v-69h39v-20h-168v20h43v460h-43v20h168v-20h-39v-339l175 281v58h-39v20h168v-20h-43v-460h43v-20z" />
    <glyph glyph-name="eacute" unicode="&#x439;" horiz-adv-x="455" 
d="M377 641q0 -35 -43 -59q-21 -10 -47 -16t-57 -6q-62 0 -105 22.5t-43 58.5q0 19 15 34.5t34 15.5q18 0 32.5 -16t14.5 -34q0 -13 -6.5 -22.5t-18.5 -14.5q6 -11 33 -18t44 -7q21 0 43 6.5t34 18.5q-10 3 -19 13q-5 9 -7 24q0 18 13.5 34t33.5 16q19 0 34 -15.5t15 -34.5z
M446 0h-168v20h39v352l-175 -283v-69h39v-20h-168v20h43v460h-43v20h168v-20h-39v-339l175 281v58h-39v20h168v-20h-43v-460h43v-20z" />
    <glyph glyph-name="ecircumflex" unicode="&#xea;" horiz-adv-x="440" 
d="M440 0h-122l-169 249v-229h52v-20h-181v20h43v460h-43v20h172v-20h-43v-215l187 215h-74v20h145v-20h-41l-154 -175l195 -285h33v-20z" />
    <glyph glyph-name="ecircumflex" unicode="&#x43a;" horiz-adv-x="440" 
d="M440 0h-122l-169 249v-229h52v-20h-181v20h43v460h-43v20h172v-20h-43v-215l187 215h-74v20h145v-20h-41l-154 -175l195 -285h33v-20z" />
    <glyph glyph-name="edieresis" unicode="&#xeb;" horiz-adv-x="409" 
d="M409 0h-188v20h63l-111 386l-119 -386h70v-20h-124v20h29l151 480h49l144 -480h36v-20z" />
    <glyph glyph-name="edieresis" unicode="&#x43b;" horiz-adv-x="409" 
d="M409 0h-188v20h63l-111 386l-119 -386h70v-20h-124v20h29l151 480h49l144 -480h36v-20z" />
    <glyph glyph-name="igrave" unicode="&#xec;" horiz-adv-x="571" 
d="M551 0h-170v20h42v430l-142 -450h-51l-143 450v-430h40v-20h-106v20h42v460h-42v20h138l127 -413l127 413h138v-20h-42v-460h42v-20z" />
    <glyph glyph-name="igrave" unicode="&#x43c;" horiz-adv-x="571" 
d="M551 0h-170v20h42v430l-142 -450h-51l-143 450v-430h40v-20h-106v20h42v460h-42v20h138l127 -413l127 413h138v-20h-42v-460h42v-20z" />
    <glyph glyph-name="iacute" unicode="&#xed;" horiz-adv-x="472" 
d="M324 20v233h-176v-233h42v-20h-170v20h42v460h-42v20h170v-20h-42v-203h176v203h-42v20h170v-20h-42v-460h42v-20h-170v20h42z" />
    <glyph glyph-name="iacute" unicode="&#x43d;" horiz-adv-x="472" 
d="M324 20v233h-176v-233h42v-20h-170v20h42v460h-42v20h170v-20h-42v-203h176v203h-42v20h170v-20h-42v-460h42v-20h-170v20h42z" />
    <glyph glyph-name="icircumflex" unicode="&#xee;" horiz-adv-x="421" 
d="M401 253q0 -56 -13.5 -104t-38 -82.5t-61.5 -57.5q-35 -20 -77 -20q-39 0 -73.5 19t-60 53.5t-41.5 83.5t-16 108q0 29 3 52t11 49q13 47 38.5 81.5t61 55t77.5 20.5t77.5 -19t59.5 -52.5t38.5 -82t14.5 -104.5zM309 253q0 124 -25 179t-73 55q-45 0 -72 -55t-27 -179
q0 -130 27 -185t72 -55q47 0 72.5 57t25.5 183z" />
    <glyph glyph-name="icircumflex" unicode="&#x43e;" horiz-adv-x="421" 
d="M401 253q0 -56 -13.5 -104t-38 -82.5t-61.5 -57.5q-35 -20 -77 -20q-39 0 -73.5 19t-60 53.5t-41.5 83.5t-16 108q0 29 3 52t11 49q13 47 38.5 81.5t61 55t77.5 20.5t77.5 -19t59.5 -52.5t38.5 -82t14.5 -104.5zM309 253q0 124 -25 179t-73 55q-45 0 -72 -55t-27 -179
q0 -130 27 -185t72 -55q47 0 72.5 57t25.5 183z" />
    <glyph glyph-name="idieresis" unicode="&#xef;" horiz-adv-x="472" 
d="M452 0h-170v20h42v460h-176v-460h42v-20h-170v20h42v460h-42v20h432v-20h-42v-460h42v-20z" />
    <glyph glyph-name="idieresis" unicode="&#x43f;" horiz-adv-x="472" 
d="M452 0h-170v20h42v460h-176v-460h42v-20h-170v20h42v460h-42v20h432v-20h-42v-460h42v-20z" />
    <glyph glyph-name="eth" unicode="&#xf0;" horiz-adv-x="468" 
d="M448 252q0 -56 -15 -105.5t-41 -84t-62 -54t-76 -19.5q-35 0 -62 20.5t-43 52.5v-212h60v-20h-188v20h42v630h-42v20h122v-69q18 37 45 58.5t73 21.5q41 0 75.5 -20t60.5 -56q22 -32 38 -82q13 -50 13 -101zM149 332v-150q0 -72 28.5 -120.5t73.5 -48.5q47 0 77 57
q28 59 28 183q0 114 -29 174t-74 60q-41 0 -72.5 -37.5t-31.5 -117.5z" />
    <glyph glyph-name="eth" unicode="&#x440;" horiz-adv-x="468" 
d="M448 252q0 -56 -15 -105.5t-41 -84t-62 -54t-76 -19.5q-35 0 -62 20.5t-43 52.5v-212h60v-20h-188v20h42v630h-42v20h122v-69q18 37 45 58.5t73 21.5q41 0 75.5 -20t60.5 -56q22 -32 38 -82q13 -50 13 -101zM149 332v-150q0 -72 28.5 -120.5t73.5 -48.5q47 0 77 57
q28 59 28 183q0 114 -29 174t-74 60q-41 0 -72.5 -37.5t-31.5 -117.5z" />
    <glyph glyph-name="ntilde" unicode="&#xf1;" horiz-adv-x="386" 
d="M366 160q0 -39 -12.5 -69t-33.5 -53.5t-48.5 -36t-57.5 -12.5q-45 0 -83 22q-35 22 -61 60q-10 16 -20 38t-18 46q-13 52 -13 98q0 29 3 52t11 49q14 48 39.5 82t63.5 54.5t85 20.5q21 0 32 -1t41 -8t56 -22v-169h-24q-5 28 -8.5 43t-11.5 36q-13 36 -29 65q-7 18 -25 25
t-38 7q-47 0 -75 -57t-28 -175t25.5 -180t80.5 -62q25 0 47 10.5t39.5 28.5t28 43t10.5 55v35h24v-25z" />
    <glyph glyph-name="ntilde" unicode="&#x441;" horiz-adv-x="386" 
d="M366 160q0 -39 -12.5 -69t-33.5 -53.5t-48.5 -36t-57.5 -12.5q-45 0 -83 22q-35 22 -61 60q-10 16 -20 38t-18 46q-13 52 -13 98q0 29 3 52t11 49q14 48 39.5 82t63.5 54.5t85 20.5q21 0 32 -1t41 -8t56 -22v-169h-24q-5 28 -8.5 43t-11.5 36q-13 36 -29 65q-7 18 -25 25
t-38 7q-47 0 -75 -57t-28 -175t25.5 -180t80.5 -62q25 0 47 10.5t39.5 28.5t28 43t10.5 55v35h24v-25z" />
    <glyph glyph-name="ograve" unicode="&#xf2;" horiz-adv-x="395" 
d="M386 313h-24q-2 21 -4 31.5t-9 39.5q-10 43 -20 63q-6 16 -17 23.5t-24 9.5h-47v-460h76v-20h-238v20h76v460h-48q-11 0 -23 -7.5t-17.5 -21.5t-10.5 -28t-11 -39l-11 -71h-24v187h376v-187z" />
    <glyph glyph-name="ograve" unicode="&#x442;" horiz-adv-x="395" 
d="M386 313h-24q-2 21 -4 31.5t-9 39.5q-10 43 -20 63q-6 16 -17 23.5t-24 9.5h-47v-460h76v-20h-238v20h76v460h-48q-11 0 -23 -7.5t-17.5 -21.5t-10.5 -28t-11 -39l-11 -71h-24v187h376v-187z" />
    <glyph glyph-name="oacute" unicode="&#xf3;" horiz-adv-x="435" 
d="M435 480h-31l-187 -591q-9 -29 -29 -49.5t-39 -20.5q-17 0 -26 1t-35 8t-40 22v150h25q3 -28 5.5 -41t8.5 -34q3 -11 7 -25.5t10 -26.5q3 -8 15 -16q10 -5 25 -7q14 0 30 15t22 36l30 99l-179 480h-39v20h192v-20h-58l125 -359l109 359h-64v20h123v-20z" />
    <glyph glyph-name="oacute" unicode="&#x443;" horiz-adv-x="435" 
d="M435 480h-31l-187 -591q-9 -29 -29 -49.5t-39 -20.5q-17 0 -26 1t-35 8t-40 22v150h25q3 -28 5.5 -41t8.5 -34q3 -11 7 -25.5t10 -26.5q3 -8 15 -16q10 -5 25 -7q14 0 30 15t22 36l30 99l-179 480h-39v20h192v-20h-58l125 -359l109 359h-64v20h123v-20z" />
    <glyph glyph-name="ocircumflex" unicode="&#xf4;" horiz-adv-x="713" 
d="M692 252q0 -60 -13.5 -106t-38.5 -82t-60 -55.5t-76 -19.5q-72 0 -105 72v-211h54v-20h-194v20h54v211q-15 -36 -42 -54t-62 -18q-42 0 -77 19q-32 19 -58 54.5t-40 84.5t-14 105q0 53 12 100t35 82t57 56t78 21q43 0 69 -18.5t42 -56.5v224h-42v20h128v-244q16 37 43 56
t69 19q41 0 75.5 -20.5t58 -55.5t35.5 -82t12 -101zM504 487q-39 0 -72 -37.5t-33 -117.5v-153q0 -74 29 -120t73 -46q47 0 74 57q25 59 25 183q0 114 -26 174t-70 60zM313 182v150q0 81 -32 118t-72 37q-43 0 -70 -61t-27 -173q0 -126 24.5 -183t75.5 -57q43 0 72 48.5
t29 120.5z" />
    <glyph glyph-name="ocircumflex" unicode="&#x444;" horiz-adv-x="713" 
d="M692 252q0 -60 -13.5 -106t-38.5 -82t-60 -55.5t-76 -19.5q-72 0 -105 72v-211h54v-20h-194v20h54v211q-15 -36 -42 -54t-62 -18q-42 0 -77 19q-32 19 -58 54.5t-40 84.5t-14 105q0 53 12 100t35 82t57 56t78 21q43 0 69 -18.5t42 -56.5v224h-42v20h128v-244q16 37 43 56
t69 19q41 0 75.5 -20.5t58 -55.5t35.5 -82t12 -101zM504 487q-39 0 -72 -37.5t-33 -117.5v-153q0 -74 29 -120t73 -46q47 0 74 57q25 59 25 183q0 114 -26 174t-70 60zM313 182v150q0 81 -32 118t-72 37q-43 0 -70 -61t-27 -173q0 -126 24.5 -183t75.5 -57q43 0 72 48.5
t29 120.5z" />
    <glyph glyph-name="otilde" unicode="&#xf5;" horiz-adv-x="435" 
d="M435 0h-198v20h62l-107 202l-128 -202h68v-20h-132v20h37l143 226l-125 234h-38v20h190v-20h-58l91 -167l105 167h-63v20h130v-20h-40l-121 -190l146 -270h38v-20z" />
    <glyph glyph-name="otilde" unicode="&#x445;" horiz-adv-x="435" 
d="M435 0h-198v20h62l-107 202l-128 -202h68v-20h-132v20h37l143 226l-125 234h-38v20h190v-20h-58l91 -167l105 167h-63v20h130v-20h-40l-121 -190l146 -270h38v-20z" />
    <glyph glyph-name="odieresis" unicode="&#xf6;" horiz-adv-x="488" 
d="M62 20v460h-42v20h170v-20h-42v-460h176v460h-42v20h170v-20h-42v-460h64v-190h-24l-5 36l-7 38l-9 36q-3 15 -9 27q-12 33 -40 33h-360v20h42z" />
    <glyph glyph-name="odieresis" unicode="&#x446;" horiz-adv-x="488" 
d="M62 20v460h-42v20h170v-20h-42v-460h176v460h-42v20h170v-20h-42v-460h64v-190h-24l-5 36l-7 38l-9 36q-3 15 -9 27q-12 33 -40 33h-360v20h42z" />
    <glyph glyph-name="divide" unicode="&#xf7;" horiz-adv-x="442" 
d="M294 20v206h-86q-34 0 -61 11t-48.5 29.5t-33 43t-11.5 53.5v117h-42v20h170v-20h-42v-125q0 -45 26 -75t61 -30h67v230h-42v20h170v-20h-42v-460h42v-20h-182v20h54z" />
    <glyph glyph-name="divide" unicode="&#x447;" horiz-adv-x="442" 
d="M294 20v206h-86q-34 0 -61 11t-48.5 29.5t-33 43t-11.5 53.5v117h-42v20h170v-20h-42v-125q0 -45 26 -75t61 -30h67v230h-42v20h170v-20h-42v-460h42v-20h-182v20h54z" />
    <glyph glyph-name="oslash" unicode="&#xf8;" horiz-adv-x="678" 
d="M658 0h-638v20h42v460h-42v20h170v-20h-42v-460h148v460h-42v20h170v-20h-42v-460h148v460h-42v20h170v-20h-42v-460h42v-20z" />
    <glyph glyph-name="oslash" unicode="&#x448;" horiz-adv-x="678" 
d="M658 0h-638v20h42v460h-42v20h170v-20h-42v-460h148v460h-42v20h170v-20h-42v-460h148v460h-42v20h170v-20h-42v-460h42v-20z" />
    <glyph glyph-name="ugrave" unicode="&#xf9;" horiz-adv-x="694" 
d="M62 20v460h-42v20h170v-20h-42v-460h148v460h-42v20h170v-20h-42v-460h148v460h-42v20h170v-20h-42v-460h64v-190h-25q-3 30 -12 74q-6 42 -16 63q-12 33 -41 33h-566v20h42z" />
    <glyph glyph-name="ugrave" unicode="&#x449;" horiz-adv-x="694" 
d="M62 20v460h-42v20h170v-20h-42v-460h148v460h-42v20h170v-20h-42v-460h148v460h-42v20h170v-20h-42v-460h64v-190h-25q-3 30 -12 74q-6 42 -16 63q-12 33 -41 33h-566v20h42z" />
    <glyph glyph-name="uacute" unicode="&#xfa;" horiz-adv-x="509" 
d="M493 146q0 -31 -12 -56.5t-37 -47.5q-20 -17 -52 -31q-30 -11 -63 -11h-225v20h42v460h-37q-26 0 -41 -32q-9 -24 -18 -66l-13 -72h-24v190h273v-20h-54v-184h100q32 0 61.5 -12t51 -32t35.5 -49q8 -18 10.5 -31t2.5 -26zM401 146q0 51 -31 88.5t-76 37.5h-62v-252h61
q46 0 77 37t31 89z" />
    <glyph glyph-name="uacute" unicode="&#x44a;" horiz-adv-x="509" 
d="M493 146q0 -31 -12 -56.5t-37 -47.5q-20 -17 -52 -31q-30 -11 -63 -11h-225v20h42v460h-37q-26 0 -41 -32q-9 -24 -18 -66l-13 -72h-24v190h273v-20h-54v-184h100q32 0 61.5 -12t51 -32t35.5 -49q8 -18 10.5 -31t2.5 -26zM401 146q0 51 -31 88.5t-76 37.5h-62v-252h61
q46 0 77 37t31 89z" />
    <glyph glyph-name="ucircumflex" unicode="&#xfb;" horiz-adv-x="602" 
d="M453 20v460h-42v20h170v-20h-42v-460h42v-20h-170v20h42zM411 146q0 -31 -12 -56.5t-37 -47.5q-20 -17 -52 -31q-31 -11 -64 -11h-225v20h42v460h-42v20h182v-20h-54v-184h99q33 0 62.5 -12t52.5 -33q19 -18 35 -48q8 -18 10.5 -31t2.5 -26zM319 146q0 51 -31 88.5
t-77 37.5h-62v-252h61q44 0 76.5 37t32.5 89z" />
    <glyph glyph-name="ucircumflex" unicode="&#x44b;" horiz-adv-x="602" 
d="M453 20v460h-42v20h170v-20h-42v-460h42v-20h-170v20h42zM411 146q0 -31 -12 -56.5t-37 -47.5q-20 -17 -52 -31q-31 -11 -64 -11h-225v20h42v460h-42v20h182v-20h-54v-184h99q33 0 62.5 -12t52.5 -33q19 -18 35 -48q8 -18 10.5 -31t2.5 -26zM319 146q0 51 -31 88.5
t-77 37.5h-62v-252h61q44 0 76.5 37t32.5 89z" />
    <glyph glyph-name="udieresis" unicode="&#xfc;" horiz-adv-x="426" 
d="M410 146q0 -31 -12.5 -57.5t-34 -45t-53.5 -32.5q-31 -11 -65 -11h-225v20h42v460h-42v20h182v-20h-54v-184h100q32 0 61.5 -12t52.5 -33q19 -18 35 -48q8 -18 10.5 -31t2.5 -26zM318 146q0 51 -31 88.5t-76 37.5h-63v-252h62q44 0 77 37q31 37 31 89z" />
    <glyph glyph-name="udieresis" unicode="&#x44c;" horiz-adv-x="426" 
d="M410 146q0 -31 -12.5 -57.5t-34 -45t-53.5 -32.5q-31 -11 -65 -11h-225v20h42v460h-42v20h182v-20h-54v-184h100q32 0 61.5 -12t52.5 -33q19 -18 35 -48q8 -18 10.5 -31t2.5 -26zM318 146q0 51 -31 88.5t-76 37.5h-63v-252h62q44 0 77 37q31 37 31 89z" />
    <glyph glyph-name="yacute" unicode="&#xfd;" horiz-adv-x="396" 
d="M375 258q0 -56 -14 -104q-12 -47 -39 -85q-23 -35 -62.5 -57.5t-88.5 -22.5q-29 0 -58 12t-48 32.5t-32 51t-13 63.5v24h23v-23q0 -54 36.5 -95t89.5 -41q54 0 84 63t30 176h-173v24h173q0 100 -32 155.5t-79 55.5q-23 0 -40 -7.5t-26 -21.5q-17 -28 -28 -63l-17 -75h-24
v160q21 11 61.5 21t74.5 10q47 0 84.5 -18.5t63 -52t40 -81.5t14.5 -101z" />
    <glyph glyph-name="yacute" unicode="&#x44d;" horiz-adv-x="396" 
d="M375 258q0 -56 -14 -104q-12 -47 -39 -85q-23 -35 -62.5 -57.5t-88.5 -22.5q-29 0 -58 12t-48 32.5t-32 51t-13 63.5v24h23v-23q0 -54 36.5 -95t89.5 -41q54 0 84 63t30 176h-173v24h173q0 100 -32 155.5t-79 55.5q-23 0 -40 -7.5t-26 -21.5q-17 -28 -28 -63l-17 -75h-24
v160q21 11 61.5 21t74.5 10q47 0 84.5 -18.5t63 -52t40 -81.5t14.5 -101z" />
    <glyph glyph-name="thorn" unicode="&#xfe;" horiz-adv-x="616" 
d="M596 254q0 -29 -3 -53.5t-11 -50.5q-13 -48 -39 -84q-24 -36 -59.5 -56.5t-77.5 -20.5q-39 0 -73.5 19.5t-60.5 54.5t-41.5 83t-15.5 107h-67v-233h42v-20h-170v20h42v460h-42v20h170v-20h-42v-205h68q0 49 16 93t40.5 76t59.5 49q33 18 74 18q42 0 77.5 -19t59.5 -52.5
t38.5 -81.5t14.5 -104zM504 254q0 63 -6 106t-20 72q-26 55 -72 55q-45 0 -72 -55t-27 -178q0 -131 27 -186t72 -55t71.5 57t26.5 184z" />
    <glyph glyph-name="thorn" unicode="&#x44e;" horiz-adv-x="616" 
d="M596 254q0 -29 -3 -53.5t-11 -50.5q-13 -48 -39 -84q-24 -36 -59.5 -56.5t-77.5 -20.5q-39 0 -73.5 19.5t-60.5 54.5t-41.5 83t-15.5 107h-67v-233h42v-20h-170v20h42v460h-42v20h170v-20h-42v-205h68q0 49 16 93t40.5 76t59.5 49q33 18 74 18q42 0 77.5 -19t59.5 -52.5
t38.5 -81.5t14.5 -104zM504 254q0 63 -6 106t-20 72q-26 55 -72 55q-45 0 -72 -55t-27 -178q0 -131 27 -186t72 -55t71.5 57t26.5 184z" />
    <glyph glyph-name="ydieresis" unicode="&#xff;" horiz-adv-x="444" 
d="M295 20v202h-24l-139 -222h-122v20h30l135 202q-26 0 -51.5 12t-47.5 31q-17 17 -31 42q-11 25 -11 54q0 28 11.5 52t33.5 46q21 18 49 30q30 11 61 11h234v-20h-42v-460h42v-20h-170v20h42zM295 246v234h-60q-48 0 -78.5 -33.5t-30.5 -87.5q0 -45 30 -79t77 -34h62z" />
    <glyph glyph-name="ydieresis" unicode="&#x44f;" horiz-adv-x="444" 
d="M295 20v202h-24l-139 -222h-122v20h30l135 202q-26 0 -51.5 12t-47.5 31q-17 17 -31 42q-11 25 -11 54q0 28 11.5 52t33.5 46q21 18 49 30q30 11 61 11h234v-20h-42v-460h42v-20h-170v20h42zM295 246v234h-60q-48 0 -78.5 -33.5t-30.5 -87.5q0 -45 30 -79t77 -34h62z" />
    <glyph glyph-name="florin" unicode="&#x192;" horiz-adv-x="304" 
d="M284 553h-25q-3 32 -11 50q-6 20 -18 42q-6 10 -17 13l-20 2q-17 0 -27 -7.5t-12 -24.5v-128h107v-20h-107v-563q0 -48 -30 -74q-30 -24 -77 -24h-26v20h11q19 0 27.5 16t8.5 43v582h-42v20h42v73q0 64 36 91t98 27q13 0 19 -1t25.5 -8t37.5 -22v-107z" />
    <glyph glyph-name="florin" unicode="&#x453;" horiz-adv-x="304" 
d="M284 553h-25q-3 32 -11 50q-6 20 -18 42q-6 10 -17 13l-20 2q-17 0 -27 -7.5t-12 -24.5v-128h107v-20h-107v-563q0 -48 -30 -74q-30 -24 -77 -24h-26v20h11q19 0 27.5 16t8.5 43v582h-42v20h42v73q0 64 36 91t98 27q13 0 19 -1t25.5 -8t37.5 -22v-107z" />
    <glyph glyph-name="endash" unicode="&#x2013;" horiz-adv-x="555" 
d="M535 242h-515v42h515v-42z" />
    <glyph glyph-name="emdash" unicode="&#x2014;" horiz-adv-x="708" 
d="M688 240h-668v43h668v-43z" />
    <glyph glyph-name="quoteleft" unicode="&#x2018;" horiz-adv-x="149" 
d="M109 691l15 -20q-19 -12 -37 -35q-17 -19 -20 -36l8 1q22 0 38 -16t16 -38q0 -24 -15.5 -41t-38.5 -17q-24 0 -41 17t-17 42q0 46 25.5 80.5t66.5 62.5z" />
    <glyph glyph-name="quoteright" unicode="&#x2019;" horiz-adv-x="152" 
d="M74 579q-20 0 -38 15q-16 16 -16 39q0 24 15.5 41t38.5 17q24 0 41 -17t17 -42q0 -44 -26.5 -81t-65.5 -62l-15 20q19 12 37 35q17 19 20 36z" />
    <glyph glyph-name="quotesinglbase" unicode="&#x201a;" horiz-adv-x="152" 
d="M74 -11q-20 0 -38 15q-16 16 -16 39q0 24 15.5 41t38.5 17q24 0 41 -17t17 -42q0 -45 -26 -80.5t-66 -62.5l-15 20q19 12 37 35q17 19 20 36z" />
    <glyph glyph-name="quotedblleft" unicode="&#x201c;" horiz-adv-x="296" 
d="M256 691l15 -20q-19 -12 -37 -35q-17 -19 -20 -36l8 1q21 0 37.5 -16t16.5 -38q0 -24 -15.5 -41t-38.5 -17q-24 0 -41 17t-17 42q0 46 25.5 80.5t66.5 62.5zM112 691l15 -20q-19 -12 -37 -35q-17 -19 -20 -36l8 1q21 0 37.5 -16t16.5 -38q0 -24 -15.5 -41t-38.5 -17
q-24 0 -41 17t-17 42q0 46 25.5 80.5t66.5 62.5z" />
    <glyph glyph-name="quotedblright" unicode="&#x201d;" horiz-adv-x="300" 
d="M74 579q-20 0 -38 15q-16 16 -16 39q0 24 15.5 41t38.5 17q24 0 41 -17t17 -42q0 -44 -26.5 -81t-65.5 -62l-15 20q19 12 37 35q17 19 20 36zM222 579q-20 0 -38 15q-16 16 -16 39q0 24 15.5 41t38.5 17q24 0 41 -17t17 -42q0 -44 -26.5 -81t-65.5 -62l-15 20
q19 12 37 35q17 19 20 36z" />
    <glyph glyph-name="quotedblbase" unicode="&#x201e;" horiz-adv-x="300" 
d="M74 -11q-20 0 -38 15q-16 16 -16 39q0 24 15.5 41t38.5 17q24 0 41 -17t17 -42q0 -45 -26 -80.5t-66 -62.5l-15 20q19 12 37 35q17 19 20 36zM222 -11q-20 0 -38 15q-16 16 -16 39q0 24 15.5 41t38.5 17q24 0 41 -17t17 -42q0 -45 -26 -80.5t-66 -62.5l-15 20
q19 12 37 35q17 19 20 36z" />
    <glyph glyph-name="dagger" unicode="&#x2020;" horiz-adv-x="316" 
d="M296 458h-112v-628h-50v628h-114v42h114v180h50v-180h112v-42z" />
    <glyph glyph-name="daggerdbl" unicode="&#x2021;" horiz-adv-x="316" 
d="M296 189h-112v-359h-50v359h-114v42h114v227h-114v42h114v180h50v-180h112v-42h-112v-227h112v-42z" />
    <glyph glyph-name="bullet" unicode="&#x2022;" horiz-adv-x="245" 
d="M122 332q34 0 57 -23t23 -56t-23 -56t-57 -23q-33 0 -56 23t-23 56t23 56t56 23z" />
    <glyph glyph-name="ellipsis" unicode="&#x2026;" horiz-adv-x="499" 
d="M250 -11q-23 0 -40 16q-16 18 -16 40q0 23 16.5 39.5t39.5 16.5t39 -17q17 -15 17 -39q0 -23 -16.5 -39.5t-39.5 -16.5zM95 -11q-23 0 -40 16q-16 18 -16 40q0 23 16.5 39.5t39.5 16.5t39 -17q17 -15 17 -39q0 -23 -16.5 -39.5t-39.5 -16.5zM405 -11q-23 0 -40 16
q-16 18 -16 40q0 23 16.5 39.5t39.5 16.5t39 -17q17 -15 17 -39q0 -23 -16.5 -39.5t-39.5 -16.5z" />
    <glyph glyph-name="perthousand" unicode="&#x2030;" horiz-adv-x="1000" 
d="M527 -11q-35 0 -61 17q-24 18 -40.5 46.5t-27.5 71.5q-4 20 -6 39.5t-2 45.5q0 49 8.5 87t25 66.5t42.5 47t61 18.5q34 0 60 -17.5t42.5 -47t25.5 -70.5q4 -20 6 -39.5t2 -44.5q0 -44 -8.5 -84.5t-25.5 -71t-42.5 -47.5t-59.5 -17zM527 9q18 0 33.5 16.5t24.5 43.5t15 64
q3 25 4 37t1 39q0 20 -1 40t-4 38q0 17 -3.5 32.5t-10.5 30.5q-9 28 -25 42q-14 16 -34 16q-19 0 -34 -15t-26 -43q-4 -13 -8 -32t-7 -42t-3.5 -40t-0.5 -27q0 -19 1 -38t5 -48t13 -54.5t25 -42.5t35 -17zM520 680l-325 -680h-34l326 680h33zM157 252q-35 0 -61 17
q-24 18 -40.5 46.5t-27.5 71.5q-4 20 -6 39.5t-2 45.5q0 49 8.5 87t25 66.5t42.5 47t61 18.5q34 0 60 -17.5t42.5 -47t25.5 -70.5q4 -20 6 -39.5t2 -44.5q0 -44 -8.5 -84.5t-25.5 -71t-42.5 -47.5t-59.5 -17zM157 272q18 0 33.5 16.5t24.5 43.5t15 64q3 25 4 37t1 39
q0 20 -1 40t-4 38q0 17 -3.5 32.5t-10.5 30.5q-9 28 -25 42q-14 16 -34 16q-19 0 -34 -15t-26 -43q-4 -13 -8 -32t-7 -42t-3.5 -40t-0.5 -27q0 -19 1 -38t5 -48t13 -54.5t25 -42.5t35 -17zM844 -11q-34 0 -59.5 17t-42 46t-27.5 72q-4 20 -6 39.5t-2 45.5q0 49 8.5 87t25 67
t43 47t60.5 18t60 -17.5t42.5 -47t25.5 -70.5q4 -20 6 -39.5t2 -44.5q0 -44 -8.5 -84.5t-25.5 -71t-42.5 -47.5t-59.5 -17zM844 9q19 0 34 16.5t24 43.5t15 64q3 25 4 37t1 39q0 20 -1 40t-4 38q0 17 -3.5 32.5t-10.5 30.5q-9 28 -25 42q-14 16 -34 16q-19 0 -34 -15
t-26 -43q-4 -13 -8 -32t-7 -42t-3.5 -40t-0.5 -27q0 -19 1 -38t5 -48t13 -54.5t25 -42.5t35 -17z" />
    <glyph glyph-name="guilsinglleft" unicode="&#x2039;" horiz-adv-x="263" 
d="M243 23l-17 -20l-75 54q-37 30 -57 51q-28 28 -53 70q-21 39 -21 73q0 36 22 73.5t53 67.5q18 19 55 48q26 21 37 29l39 27l17 -20q-9 -6 -19.5 -15.5t-24.5 -23.5q-27 -25 -45 -49q-22 -28 -40 -70q-4 -11 -10 -30.5t-6 -36.5q0 -28 14.5 -61.5t39.5 -65.5
q14 -20 40 -49z" />
    <glyph glyph-name="guilsinglright" unicode="&#x203a;" horiz-adv-x="263" 
d="M37 496l34 -24l37 -29l35 -28l25 -23q33 -32 54 -67.5t21 -73.5q0 -37 -19 -72t-56 -71l-25 -23l-35 -29l-37 -29l-34 -24l-17 20l23 22l25 27l24 28l19 24q24 31 39 64t15 63q0 32 -16 68.5t-40 68.5l-18 21l-24 25l-25 24l-22 18z" />
    <glyph glyph-name="trademark" unicode="&#x2122;" horiz-adv-x="722" 
d="M702 272h-134v20h46v349l-119 -369h-22l-120 369v-349h43v-20h-92v20h31v368h-31v20h95l103 -327l105 327h95v-20h-31v-368h31v-20zM283 549h-20q0 24 -8 51l-12 39q-2 15 -10 18t-20 3h-33v-368h35v-20h-129v20h37v368h-34l-19 -3q-7 -1 -13 -18l-11 -44l-6 -46h-20v131
h263v-131z" />
    </font>
</defs>
</svg>
