<svg xmlns="http://www.w3.org/2000/svg" width="79" height="83"><path data-name="Фигура 34" d="M59.37 24.26L50.239-.01 25.756 9l9.082 23.44zM41.546 59.1h.185L24.14 10.93a2.55 2.55 0 00-3.465-1.39L2.043 15.79a2.622 2.622 0 00-1.811 3.59c.195 1.38 2.239 1.93 3.426 1.75l16.209-5.52 16.831 44.87c1.616-.38 3.232-1.2 4.848-1.38zm28.756 1l-14.593 5.07a13.54 13.54 0 011.8 3.94v1.57l14.787-5.51a2.316 2.316 0 001.616-3.32c-.379-1.56-1.812-2.2-3.612-1.75zm-25.719-1.56c3.611.56 7.271 1.75 9.316 4.24l25.1-8.37-11.74-30.98L35.65 34.64zm-2.852 1.94a11.4 11.4 0 1013.978 9.01 12.088 12.088 0 00-13.978-9.01zm3.046 15.26a3.946 3.946 0 01-4.847-3.13c-.623-2.58.993-4.51 3.416-5.33 2.239-.37 4.848 1.19 5.092 3.58a4 4 0 01-3.661 4.88z" fill="#1e1e1c" fill-rule="evenodd"/></svg>