<svg xmlns="http://www.w3.org/2000/svg" width="72.032" height="69.35"><path data-name="Фигура 29" d="M24.25 21.87a13.878 13.878 0 00-3.153-19.41 13.418 13.418 0 00-18.763 3.4 14.3 14.3 0 003.309 19.25 12.969 12.969 0 0018.607-3.24zm-6.812-5.18a4.678 4.678 0 01-4.166 2.11 4.429 4.429 0 01-2.647-.84 4.515 4.515 0 01-1.985-3.31 3.611 3.611 0 01.818-3.6 4.606 4.606 0 013.814-2.19 4.889 4.889 0 013 .91A4.272 4.272 0 0118.101 13a5.772 5.772 0 01-.663 3.69zm49.085-6.56a13.571 13.571 0 00-19.074 3.32 14.243 14.243 0 003.309 19.21 13.054 13.054 0 0018.723-3.32 14.03 14.03 0 00-2.958-19.21zm-3.815 14.18a4.929 4.929 0 01-3.971 2.04 4.683 4.683 0 01-2.841-.84 4.827 4.827 0 01-2.141-3.24 9.478 9.478 0 01.818-3.83 4.857 4.857 0 016.812-1 5.117 5.117 0 012.14 3.24 8.993 8.993 0 01-.817 3.63zm-32.5 17.22l-7.979-15.86a20.78 20.78 0 01-3.971 2.31l8.135 15.74a20.141 20.141 0 013.812-2.19zm14.6-24.84l-16.932-2.48a17.649 17.649 0 01-.662 4.43l17.088 2.63a20.157 20.157 0 01.5-4.58zm-1.829 27.55a13.171 13.171 0 00-18.723 3.4 14.2 14.2 0 003.308 19.2 13.177 13.177 0 0018.723-3.39 13.914 13.914 0 00-3.314-19.21zm-3.815 14.18a4.666 4.666 0 01-3.971 2.24 3.773 3.773 0 01-2.491-.96 5.221 5.221 0 01-2.18-3.24 4.423 4.423 0 01.857-3.79 4.88 4.88 0 013.814-1.88 4.366 4.366 0 012.8.76 4.176 4.176 0 011.985 3.24 4.074 4.074 0 01-.82 3.63z" fill="#1e1e1c" fill-rule="evenodd"/></svg>