<svg xmlns="http://www.w3.org/2000/svg" width="76.03" height="75.97"><path data-name="Фигура 33" d="M47.06 30.25a.967.967 0 00-1.4.33l-3.76 4.04-6.55 6.54-1.76-1.71-2.56-2.37a1 1 0 00-1.39 0l-3.77 4.08a.731.731 0 000 1.35l4.14 4.09.84.97 1.34 1.4 2.37 2.27a1.1 1.1 0 001.63 0l15.24-15.41a1.238 1.238 0 00-.61-1.63zm24.72 11.8a5.975 5.975 0 010-7.85l2.96-2.93c2.19-2.42 1.4-4.69-1.38-5.48l-3.95-1.34a5.706 5.706 0 01-3.96-6.65l1.17-4.17c.83-2.84-1.17-4.64-4.33-3.95l-3.95 1.11a5.654 5.654 0 01-6.73-4.09l-1.39-4.03c-.61-2.88-3.16-3.57-5.35-1.4l-2.78 2.98a6.01 6.01 0 01-8.08 0l-2.98-2.98c-2.18-2.17-4.55-1.48-5.16 1.4L24.49 6.7a5.768 5.768 0 01-6.93 4.09l-3.95-1.11c-3.16-.69-4.74 1.11-4.13 3.95l.97 4.17a5.155 5.155 0 01-3.75 6.65l-3.95 1.34c-2.79.79-3.77 3.06-1.4 5.48l2.74 2.93a5.511 5.511 0 010 7.85l-2.74 3.06c-2.37 1.96-1.39 4.65 1.4 5.44l3.95 1.06a5.218 5.218 0 013.75 6.64l-.97 4.37c-.61 2.83.97 4.55 4.13 3.86l3.95-1.03a5.743 5.743 0 016.93 3.9l1.38 4.14c.61 2.64 2.98 3.34 5.16 1.3L34.01 72a5.808 5.808 0 018.08 0l2.78 2.79c2.19 2.04 4.74 1.34 5.35-1.3l1.39-4.14a5.623 5.623 0 016.73-3.9l3.95 1.03c3.16.69 5.16-1.03 4.33-3.86l-1.17-4.37a5.8 5.8 0 013.96-6.64l3.95-1.06c2.78-.79 3.57-3.48 1.38-5.44zM38.56 62.29a23.039 23.039 0 11-.79-46.07 22.745 22.745 0 0123.31 22.76c.61 12.86-9.65 23.13-22.52 23.31z" fill="#1e1e1c" fill-rule="evenodd"/></svg>