<svg xmlns="http://www.w3.org/2000/svg" width="58.97" height="58.47" viewBox="0 0 58.97 58.47">
  <defs>
    <style>
      .cls-1 {
        fill: #1e1e1c;
        fill-rule: evenodd;
      }
    </style>
  </defs>
  <path id="Фигура_31" data-name="Фигура 31" class="cls-1" d="M1116.34,1899.54s12.84-13.89,9.9-16.67c-2.78-2.95-16.85,9.87-16.85,9.87s-25.26-7.25-28.77-8.31c-4.83-1.56-17.58,2-9.9,6.22,8.01,4.1,27.88,12.62,27.88,12.62l-20.03,20.98s-24.04,2.71-.57,6.27c2.94,23.65,6.13-.45,6.13-0.45l21.26-19.71s8.17,19.92,12.18,28.03c4,8.03,7.85-5.08,6.62-9.79C1122.8,1924.87,1116.34,1899.54,1116.34,1899.54Z" transform="translate(-1067.72 -1882.44)"/>
</svg>
