<svg xmlns="http://www.w3.org/2000/svg" width="79" height="83" viewBox="0 0 79 83">
  <defs>
    <style>
      .cls-1 {
        fill: #1e1e1c;
        fill-rule: evenodd;
      }
    </style>
  </defs>
  <path id="Фигура_34" data-name="Фигура 34" class="cls-1" d="M297.37,1894.26l-9.131-24.27L263.756,1879l9.082,23.44Zm-17.824,34.84h0.185l-17.591-48.17a2.55,2.55,0,0,0-3.465-1.39l-18.632,6.25a2.622,2.622,0,0,0-1.811,3.59c0.195,1.38,2.239,1.93,3.426,1.75l16.209-5.52,16.831,44.87C276.314,1930.1,277.93,1929.28,279.546,1929.1Zm28.756,1-14.593,5.07a13.54,13.54,0,0,1,1.8,3.94v1.57l14.787-5.51a2.316,2.316,0,0,0,1.616-3.32C311.533,1930.29,310.1,1929.65,308.3,1930.1Zm-25.719-1.56c3.611,0.56,7.271,1.75,9.316,4.24l25.1-8.37-11.74-30.98-31.609,11.21Zm-2.852,1.94a11.4,11.4,0,1,0,13.978,9.01A12.088,12.088,0,0,0,279.731,1930.48Zm3.046,15.26a3.946,3.946,0,0,1-4.847-3.13c-0.623-2.58.993-4.51,3.416-5.33,2.239-.37,4.848,1.19,5.092,3.58A4,4,0,0,1,282.777,1945.74Z" transform="translate(-238 -1870)"/>
</svg>
