<svg xmlns="http://www.w3.org/2000/svg" width="72.032" height="69.35" viewBox="0 0 72.032 69.35">
  <defs>
    <style>
      .cls-1 {
        fill: #1e1e1c;
        fill-rule: evenodd;
      }
    </style>
  </defs>
  <path id="Фигура_29" data-name="Фигура 29" class="cls-1" d="M538.656,1901.21a13.878,13.878,0,0,0-3.153-19.41,13.418,13.418,0,0,0-18.763,3.4,14.3,14.3,0,0,0,3.309,19.25A12.969,12.969,0,0,0,538.656,1901.21Zm-6.812-5.18a4.678,4.678,0,0,1-4.166,2.11h0a4.429,4.429,0,0,1-2.647-.84,4.515,4.515,0,0,1-1.985-3.31,3.611,3.611,0,0,1,.818-3.6,4.606,4.606,0,0,1,3.814-2.19,4.889,4.889,0,0,1,3,.91,4.272,4.272,0,0,1,1.829,3.23A5.772,5.772,0,0,1,531.844,1896.03Zm49.085-6.56a13.571,13.571,0,0,0-19.074,3.32,14.243,14.243,0,0,0,3.309,19.21,13.054,13.054,0,0,0,18.723-3.32A14.03,14.03,0,0,0,580.929,1889.47Zm-3.815,14.18a4.929,4.929,0,0,1-3.971,2.04h0a4.683,4.683,0,0,1-2.841-.84,4.827,4.827,0,0,1-2.141-3.24,9.478,9.478,0,0,1,.818-3.83,4.857,4.857,0,0,1,6.812-1,5.117,5.117,0,0,1,2.14,3.24A8.993,8.993,0,0,1,577.114,1903.65Zm-32.5,17.22-7.979-15.86a20.78,20.78,0,0,1-3.971,2.31l8.135,15.74A20.141,20.141,0,0,1,544.611,1920.87Zm14.6-24.84-16.932-2.48a17.649,17.649,0,0,1-.662,4.43l17.088,2.63A20.157,20.157,0,0,1,559.208,1896.03Zm-1.829,27.55a13.171,13.171,0,0,0-18.723,3.4,14.2,14.2,0,0,0,3.308,19.2,13.177,13.177,0,0,0,18.723-3.39A13.914,13.914,0,0,0,557.379,1923.58Zm-3.815,14.18a4.666,4.666,0,0,1-3.971,2.24h0a3.773,3.773,0,0,1-2.491-.96,5.221,5.221,0,0,1-2.18-3.24,4.423,4.423,0,0,1,.857-3.79,4.88,4.88,0,0,1,3.814-1.88,4.366,4.366,0,0,1,2.8.76,4.176,4.176,0,0,1,1.985,3.24A4.074,4.074,0,0,1,553.564,1937.76Z" transform="translate(-514.406 -1879.34)"/>
</svg>
