<svg xmlns="http://www.w3.org/2000/svg" width="76.03" height="75.97" viewBox="0 0 76.03 75.97">
  <defs>
    <style>
      .cls-1 {
        fill: #1e1e1c;
        fill-rule: evenodd;
      }
    </style>
  </defs>
  <path id="Фигура_33" data-name="Фигура 33" class="cls-1" d="M1656.06,1904.28a0.967,0.967,0,0,0-1.4.33l-3.76,4.04-6.55,6.54-1.76-1.71-2.56-2.37a1,1,0,0,0-1.39,0l-3.77,4.08a0.731,0.731,0,0,0,0,1.35l4.14,4.09,0.84,0.97,1.34,1.4,2.37,2.27a1.1,1.1,0,0,0,1.63,0l15.24-15.41a1.238,1.238,0,0,0-.61-1.63Zm24.72,11.8a5.975,5.975,0,0,1,0-7.85l2.96-2.93c2.19-2.42,1.4-4.69-1.38-5.48l-3.95-1.34a5.706,5.706,0,0,1-3.96-6.65l1.17-4.17c0.83-2.84-1.17-4.64-4.33-3.95l-3.95,1.11a5.654,5.654,0,0,1-6.73-4.09l-1.39-4.03c-0.61-2.88-3.16-3.57-5.35-1.4l-2.78,2.98a6.01,6.01,0,0,1-8.08,0l-2.98-2.98c-2.18-2.17-4.55-1.48-5.16,1.4l-1.38,4.03a5.768,5.768,0,0,1-6.93,4.09l-3.95-1.11c-3.16-.69-4.74,1.11-4.13,3.95l0.97,4.17a5.155,5.155,0,0,1-3.75,6.65l-3.95,1.34c-2.79.79-3.77,3.06-1.4,5.48l2.74,2.93a5.511,5.511,0,0,1,0,7.85l-2.74,3.06c-2.37,1.96-1.39,4.65,1.4,5.44l3.95,1.06a5.218,5.218,0,0,1,3.75,6.64l-0.97,4.37c-0.61,2.83.97,4.55,4.13,3.86l3.95-1.03a5.743,5.743,0,0,1,6.93,3.9l1.38,4.14c0.61,2.64,2.98,3.34,5.16,1.3l2.98-2.79a5.808,5.808,0,0,1,8.08,0l2.78,2.79c2.19,2.04,4.74,1.34,5.35-1.3l1.39-4.14a5.623,5.623,0,0,1,6.73-3.9l3.95,1.03c3.16,0.69,5.16-1.03,4.33-3.86l-1.17-4.37a5.8,5.8,0,0,1,3.96-6.64l3.95-1.06c2.78-.79,3.57-3.48,1.38-5.44Zm-33.22,20.24a23.039,23.039,0,1,1-.79-46.07,22.745,22.745,0,0,1,23.31,22.76C1670.69,1925.87,1660.43,1936.14,1647.56,1936.32Z" transform="translate(-1609 -1874.03)"/>
</svg>
